<svg width="1920" height="63" viewBox="0 0 1920 63" fill="none" xmlns="http://www.w3.org/2000/svg">
<g clip-path="url(#clip0_1_19)">
<g style="mix-blend-mode:color-dodge">
<path d="M0.844001 256.582C62.8909 211.964 131.357 183.966 206.959 211.146C274.275 235.36 326.603 291.611 378.343 338.479C436.655 391.304 510.314 485.091 599.829 466.656C650.213 456.275 694.536 417.717 732.184 384.887C815.279 312.399 888.119 228.43 962.826 147.658C1032.75 72.0253 1110.25 17.6146 1175.46 122.882C1219.38 193.733 1253.47 305.802 1353.06 309.739C1441.45 313.242 1507.87 242.672 1587.54 216.643C1709.74 176.73 1833.71 294.04 1919.05 362.948" stroke="#666666" stroke-miterlimit="10"/>
<path d="M0.844001 231.984C64.5277 182.381 135.475 149.448 215.911 178.034C283.789 202.146 340.005 257.119 390.184 306.543C442.359 357.963 512.385 458.96 597.808 441.726C645.61 432.087 687.656 393.452 722.9 362.105C803.489 290.384 875.459 208.615 948.273 129.274C1014.95 56.6329 1093.26 -9.59067 1159.4 95.1907C1202.68 163.741 1235.54 273.15 1333.27 274.506C1420.89 275.707 1493.96 212.117 1575.78 190.333C1703.12 156.403 1827.57 267.628 1919.03 338.684" stroke="#666666" stroke-miterlimit="10"/>
<path d="M0.844001 204.575C71.1007 149.32 146.063 119.609 231.947 157.962C302.971 189.693 365.171 249.729 420.133 302.887C469.444 350.599 530.544 431.115 608.295 406.032C655.738 390.716 696.991 349.806 732.388 316.924C803.335 251.033 869.27 179.67 936.202 109.765C999.988 43.1069 1077.38 -21.7359 1145.95 71.2071C1194.72 137.328 1225.77 243.081 1323.14 247.914C1409.87 252.209 1493.73 195.012 1577.34 179.67C1703.78 156.454 1821.38 243.593 1919.05 310.737" stroke="#666666" stroke-miterlimit="10"/>
<path d="M0.844001 174.122C76.3949 116.49 153.378 91.1509 241.64 136.664C309.262 171.514 371.667 227.638 427.295 278.852C479.137 326.59 542.795 408.845 621.134 372.435C662.029 353.437 695.687 317.257 727.81 286.651C795.381 222.217 859.295 153.897 925.281 87.8781C993.543 19.5835 1070.88 -33.3697 1141.7 57.4255C1190.45 119.942 1225.57 218.356 1318 222.447C1403.04 226.232 1487.51 185.5 1570.51 171.949C1698.62 151.033 1812.35 216.336 1919.05 279.261" stroke="#666666" stroke-miterlimit="10"/>
<path d="M0.844001 141.189C87.9807 78.3409 171.102 64.1245 263.891 122.601C330.567 164.61 392.205 221.527 451.873 272.844C501.695 315.697 557.731 382.969 627.451 344.002C664.791 323.138 695.866 285.935 725.611 255.84C788.936 191.739 850.6 126.078 915.767 63.8177C983.287 -0.69264 1060.58 -47.2536 1132.44 34.2601C1186.1 95.1141 1223.26 192.174 1315.47 200.969C1396.72 208.717 1485.26 176.96 1565.19 164.585C1692.91 144.82 1805.29 189.949 1919 245.05" stroke="#666666" stroke-miterlimit="10"/>
<path d="M0.844001 106.39C95.2442 42.9023 182.048 36.101 276.653 102.529C348.035 152.644 412.179 215.978 480.058 270.9C526.733 308.64 578.371 360.392 636.709 317.027C675.278 288.364 706.761 245.178 738.782 209.995C792.926 150.547 848.426 91.8924 907.992 37.8397C980.985 -28.4094 1060.14 -59.7057 1133.65 20.146C1187.46 78.5965 1228.69 169.826 1317.1 179.722C1400.79 189.08 1491.27 167.116 1574.16 155.738C1696.06 139.016 1804.55 166.247 1919.03 208.614" stroke="#666666" stroke-miterlimit="10"/>
<path d="M0.844001 70.2611C108.467 2.98924 199.951 10.1486 298.751 89.0031C373.713 148.834 437.602 218.459 515.736 274.915C569.343 313.626 607.988 335.487 656.914 281.537C740.061 189.847 807.402 85.3468 904.82 6.28766C976.33 -51.7282 1055 -73.3595 1126.26 -5.83202C1186.46 51.2122 1226.97 138.786 1313.88 159.343C1394.11 178.29 1494.8 159.599 1575.47 148.604C1694.52 132.368 1801.97 141.905 1919.05 170.747" stroke="#666666" stroke-miterlimit="10"/>
<path d="M0.844001 33.4163C121.357 -36.8727 219.491 -14.0397 321.104 75.9373C393.893 140.397 454.431 215.032 537.04 267.986C597.681 306.876 629.599 313.754 671.083 251.826C736.813 153.718 802.977 53.4367 898.733 -18.9233C976.151 -77.4506 1054.59 -90.593 1130.25 -23.1166C1193.24 33.0838 1238.07 123.496 1327.15 143.388C1406.16 161.031 1498.36 152.644 1578 141.803C1693.63 126.052 1802.25 118.944 1919.05 131.959" stroke="#666666" stroke-miterlimit="10"/>
<path d="M0.844001 -3.55639C132.201 -76.0443 234.965 -40.3245 339.084 58.8573C412.768 129.044 473.51 214.777 564.227 264.534C631.569 301.481 655.201 282.279 687.324 218.944C738.424 118.228 803.054 16.4385 897.71 -49.1713C977.839 -104.733 1058.89 -106.446 1134.16 -42.6001C1199.81 13.1146 1247.64 101.174 1335.59 125.873C1524.24 178.852 1729.54 99.6654 1919.05 93.0942" stroke="#666666" stroke-miterlimit="10"/>
<path d="M0.844001 -40.0943C66.1901 -74.8936 127.623 -95.5533 200.744 -70.2145C261.231 -49.248 310.771 -5.24391 355.145 39.5784C428.343 113.575 490.927 213.14 588.448 257.119C661.594 290.103 678.909 245.664 703.59 183.659C743.821 82.5086 804.563 -21.1222 899.475 -80.3398C1106.33 -209.437 1180.99 51.7748 1345.57 108.41C1537.77 174.557 1731.1 91.0998 1919.05 54.7152" stroke="#666666" stroke-miterlimit="10"/>
<path d="M0.844001 -75.6096C69.0035 -111.662 131.818 -131.759 206.269 -104.375C268.725 -81.4137 319.211 -34.4948 364.455 13.0378C435.607 87.7758 509.188 217.155 615.328 246.917C689.626 267.755 701.339 198.259 720.163 142.314C753.105 44.3854 809.883 -63.5922 904.871 -115.395C1102.06 -222.938 1201.37 18.8675 1350.25 87.2133C1545.57 176.883 1734.7 84.9376 1919.03 17.4868" stroke="#666666" stroke-miterlimit="10"/>
<path d="M0.844001 -109.488C69.6684 -146.921 131.664 -167.249 207.42 -140.734C270.234 -118.744 321.564 -69.6776 366.22 -21.8637C438.676 55.7379 516.35 203.143 629.011 225.132C705.585 240.09 716.327 163.613 733.053 106.185C761.775 7.66837 813.489 -101.383 912.749 -147.203C1110.22 -238.356 1216.72 -6.21558 1362.37 68.8548C1438.2 107.924 1536.39 127.945 1620.87 114.342C1727.95 97.1085 1825.88 33.6719 1919.05 -17.7983" stroke="#666666" stroke-miterlimit="10"/>
<path d="M0.844001 -141.194C74.1442 -183.562 144.989 -207.98 226.141 -171.365C287.037 -143.879 335.35 -93.3544 379.008 -44.3132C444.43 29.1719 526.887 183.992 636.939 195.6C719.779 204.345 730.24 113.907 747.99 52.8486C775.432 -41.5262 824.845 -142.702 924.309 -179.113C1120.3 -250.884 1233.62 -35.6709 1375.03 48.4253C1446.49 90.9208 1539.89 120.018 1623.47 109.612C1735.45 95.651 1832.35 14.6487 1919 -50.6799" stroke="#666666" stroke-miterlimit="10"/>
<path d="M0.844001 -170.112C70.0521 -214.193 138.186 -244.876 219.952 -211.866C285.477 -185.402 337.652 -129.228 382.665 -76.7346C447.014 -1.68985 527.935 152.388 642.259 155.099C723.769 157.016 738.859 65.2751 758.092 4.01202C787.837 -90.6441 834.87 -182.462 939.194 -209.233C1138.97 -260.524 1249.89 -63.7456 1392.83 30.6548C1462.81 76.8834 1556.13 115.007 1641.38 102.708C1752.86 86.5996 1842.43 -6.03658 1919.03 -80.3399" stroke="#666666" stroke-miterlimit="10"/>
<path d="M0.844001 -195.656C64.3743 -241.705 130.36 -280.289 211.154 -253.237C274.121 -232.168 323.713 -180.57 366.092 -131.631C435.505 -51.4981 505.326 91.0486 624.817 100.151C715.662 107.055 739.268 18.7908 765.407 -51.0379C801.059 -146.308 850.753 -226.978 959.936 -241.731C1153.49 -267.888 1265.03 -101.511 1399.51 3.21937C1466.92 55.7124 1558.2 105.981 1646.42 97.3897C1763.42 85.986 1849.54 -22.7842 1919.03 -106.164" stroke="#666666" stroke-miterlimit="10"/>
<path d="M0.844001 -215.804C64.0673 -259.91 129.26 -296.218 208.443 -270.445C270.106 -250.373 319.186 -201.051 361.053 -153.595C428.497 -77.1949 499.879 69.4684 615.942 73.4828C705.687 76.5766 736.404 -2.89163 768.578 -72.7459C809.832 -162.263 865.664 -244.211 971.547 -258.504C1158.33 -283.715 1275 -128.282 1407.56 -28.8696C1472.6 19.8903 1564.34 69.494 1647.87 67.8576C1764.65 65.5564 1851.15 -45.4894 1919.03 -126.543" stroke="#666666" stroke-miterlimit="10"/>
<path d="M0.844001 -229.586C63.0699 -272.158 127.316 -307.469 204.939 -283.996C264.914 -265.868 313.278 -219.69 354.48 -174.485C420.85 -101.639 491.925 43.4904 604.228 44.1808C692.285 44.7177 729.78 -25.3411 768.22 -93.5846C815.177 -176.939 876.815 -256.919 978.939 -270.931C1158.97 -295.605 1280.58 -156.203 1413.22 -63.4132C1477.62 -18.3608 1568.36 31.9077 1648.05 39.0158C1764.24 49.3713 1852.15 -62.774 1919 -140.913" stroke="#666666" stroke-miterlimit="10"/>
<path d="M0.844001 -238.126C60.5379 -278.908 124.349 -314.168 198.903 -295.247C262.459 -279.138 312.945 -231.094 356.22 -184.584C422 -113.886 487.96 17.4357 597.86 12.552C681.006 8.87007 723.386 -54.234 766.813 -116.341C820.139 -192.639 884.513 -264.18 982.161 -278.039C1159.48 -303.224 1283.7 -182.718 1421.66 -96.7551C1485.39 -57.021 1566.26 -9.89749 1639.69 9.10022C1758.72 39.8852 1849.36 -71.6209 1919.03 -150.373" stroke="#666666" stroke-miterlimit="10"/>
<path d="M0.844001 -242.524C58.901 -282.692 121.357 -318.719 194.683 -303.812C255.732 -291.386 305.349 -248.635 347.882 -205.704C414.584 -138.407 476.682 -17.5426 583.154 -22.2729C663.922 -25.8525 712.49 -78.9847 761.903 -136.234C821.111 -204.809 889.449 -269.959 983.338 -283.613C1153.16 -308.312 1283.29 -211.969 1422.86 -135.313C1492.12 -97.2665 1564.96 -50.7566 1637.67 -19.9717C1754.73 29.6065 1846.75 -77.6807 1919 -155.947" stroke="#666666" stroke-miterlimit="10"/>
</g>
</g>
<defs>
<clipPath id="clip0_1_19">
<rect width="1920" height="1282" fill="white" transform="translate(0 -610)"/>
</clipPath>
</defs>
</svg>
