<svg width="40" height="40" viewBox="0 0 40 40" fill="none" xmlns="http://www.w3.org/2000/svg">
<rect width="40" height="40" rx="20" fill="#141414"/>
<path d="M29.1666 18.0917C29.2078 16.8989 28.947 15.715 28.4083 14.65C28.0428 14.213 27.5355 13.9181 26.9749 13.8167C24.6562 13.6063 22.3279 13.52 19.9999 13.5583C17.6805 13.5183 15.3605 13.6017 13.0499 13.8083C12.5931 13.8914 12.1704 14.1057 11.8333 14.425C11.0833 15.1167 10.9999 16.3 10.9166 17.3C10.7957 19.098 10.7957 20.902 10.9166 22.7C10.9407 23.2628 11.0245 23.8215 11.1666 24.3667C11.2671 24.7875 11.4704 25.1769 11.7583 25.5C12.0977 25.8362 12.5303 26.0627 12.9999 26.15C14.7965 26.3718 16.6068 26.4637 18.4166 26.425C21.3333 26.4667 23.8916 26.425 26.9166 26.1917C27.3978 26.1097 27.8426 25.8829 28.1916 25.5417C28.4249 25.3082 28.5992 25.0226 28.6999 24.7083C28.998 23.7938 29.1443 22.8367 29.1333 21.875C29.1666 21.4083 29.1666 18.5917 29.1666 18.0917ZM18.1166 22.375V17.2167L23.0499 19.8083C21.6666 20.575 19.8416 21.4417 18.1166 22.375Z" fill="white"/>
</svg>
