<svg width="1920" height="263" viewBox="0 0 1920 263" fill="none" xmlns="http://www.w3.org/2000/svg">
<g clip-path="url(#clip0_12_414)">
<mask id="path-1-inside-1_12_414" fill="white">
<path d="M0 0H1920V263H0V0Z"/>
</mask>
<g clip-path="url(#clip1_12_414)">
<path fill-rule="evenodd" clip-rule="evenodd" d="M1885.71 273.661C1892.88 267.266 1899.2 261.187 1905.34 255.338C1912.51 264.935 1919.87 275.172 1927.04 285.271C1921.56 292.261 1915.52 299.408 1909.3 307.306C1901.4 295.893 1893.83 284.828 1885.71 273.661Z" fill="#1A1A1A"/>
<path fill-rule="evenodd" clip-rule="evenodd" d="M1908.31 252.648C1913.97 247.701 1919.39 242.679 1924.47 238.015C1930.83 246.422 1937.42 254.588 1944.1 263.3C1939.45 269.033 1934.71 275.084 1929.65 281.891C1922.53 272.089 1915.33 261.977 1908.31 252.648H1908.31Z" fill="#1A1A1A"/>
<path fill-rule="evenodd" clip-rule="evenodd" d="M1793.99 282.874C1805.15 275.021 1815.58 267.499 1825.24 260.606C1833.34 272.645 1841.36 284.64 1849.35 297.377C1839.97 306.044 1830.38 315.694 1819.41 325.065C1811 310.307 1802.26 296.533 1793.99 282.874Z" fill="#1A1A1A"/>
<path fill-rule="evenodd" clip-rule="evenodd" d="M1829.86 257.392C1839.11 252.044 1847.3 246.145 1855.27 240.652C1862.61 250.474 1870.2 260.772 1877.54 271.515C1870.07 278.505 1862.41 285.639 1853.82 293.822C1845.64 281.005 1837.99 268.93 1829.86 257.392Z" fill="#1A1A1A"/>
<path fill-rule="evenodd" clip-rule="evenodd" d="M1858.89 237.732C1866.56 232.799 1873.56 227.8 1880.29 223.601C1887.03 232.008 1894.21 241.539 1901.06 251.261C1894.79 256.761 1888.1 262.129 1880.89 268.291C1873.83 258.026 1866.29 247.825 1858.89 237.732Z" fill="#1A1A1A"/>
<path fill-rule="evenodd" clip-rule="evenodd" d="M1883.5 221.552C1889.92 217.751 1895.72 213.704 1901.47 210.398C1907.86 217.903 1913.99 225.707 1920.52 234.092C1915.39 238.56 1909.74 243.116 1904.07 248.179C1897.29 239.302 1890.26 229.898 1883.5 221.552Z" fill="#1A1A1A"/>
<path fill-rule="evenodd" clip-rule="evenodd" d="M1517.36 180.443C1540.25 175.632 1561.28 170.89 1581.09 166.378C1588.72 178.672 1596.51 190.412 1603.81 203.01C1584.59 208.35 1563.4 215.232 1539.92 222.241C1532.29 207.733 1524.88 194.008 1517.35 180.443H1517.36Z" fill="#1A1A1A"/>
<path fill-rule="evenodd" clip-rule="evenodd" d="M1649.36 166.56C1665.33 163.023 1679.39 159.535 1693.38 156.896C1700.25 166.176 1707.72 175.787 1715.17 185.863C1701.52 190.005 1687.19 194.45 1671.79 199.369C1664.62 188.319 1656.81 176.969 1649.36 166.558V166.56Z" fill="#1A1A1A"/>
<path fill-rule="evenodd" clip-rule="evenodd" d="M1668.15 94.3401C1680.88 93.8307 1692.79 93.0612 1704.28 92.4521C1710.74 99.5001 1717.07 106.374 1723.15 113.516C1712.01 114.526 1700.17 115.811 1687.58 117.649C1681.3 109.599 1675.03 101.803 1668.15 94.3401Z" fill="#1A1A1A"/>
<path fill-rule="evenodd" clip-rule="evenodd" d="M1715.11 264.288C1729.73 257.124 1743.22 250.469 1755.62 243.872C1763.61 255.983 1772.12 268.983 1779.8 282.395C1767.72 290.749 1754.73 299.323 1740.45 308.557C1732.2 293.089 1723.58 278.719 1715.11 264.288Z" fill="#1A1A1A"/>
<path fill-rule="evenodd" clip-rule="evenodd" d="M1762.41 242.034C1774.48 235.866 1785.49 230.474 1795.92 225.322C1803.12 235.532 1810.71 246.095 1818.34 256.839C1808.32 263.654 1797.35 271.167 1785.79 279.07C1777.87 265.738 1770.22 253.946 1762.41 242.031V242.034Z" fill="#1A1A1A"/>
<path fill-rule="evenodd" clip-rule="evenodd" d="M1802.36 221.565C1812 217.125 1821.11 212.796 1829.73 208.488C1836.61 217.294 1843.53 226.587 1850.45 236.135C1842.28 241.779 1833.74 247.172 1824.42 252.556C1817.19 242.347 1809.72 231.899 1802.36 221.568V221.565Z" fill="#1A1A1A"/>
<path fill-rule="evenodd" clip-rule="evenodd" d="M1834.72 205.967C1842.56 201.543 1850.06 198.279 1857.5 195.046C1863.98 203.279 1870.63 211.691 1877.46 220.193C1870.42 224.137 1863.06 228.716 1855.64 233.801C1848.77 224.392 1841.59 214.961 1834.72 205.967Z" fill="#1A1A1A"/>
<path fill-rule="evenodd" clip-rule="evenodd" d="M1860.76 194.14C1867.38 190.943 1873.91 187.937 1880.26 185.276C1885.89 192.369 1891.85 199.436 1897.73 206.506C1891.96 210.074 1885.84 213.917 1879.65 218.036C1873.27 209.941 1866.83 201.841 1860.76 194.14H1860.76Z" fill="#1A1A1A"/>
<path fill-rule="evenodd" clip-rule="evenodd" d="M1902.78 174.689C1908.03 172.784 1912.62 170.65 1917.18 168.549C1922.08 174.063 1927.18 179.854 1931.87 185.31C1927.74 187.976 1923.71 190.847 1918.77 193.374C1913.59 187.154 1908.24 180.87 1902.78 174.686V174.689Z" fill="#1A1A1A"/>
<path fill-rule="evenodd" clip-rule="evenodd" d="M1919.6 167.563C1924.03 165.47 1928.02 163.386 1931.95 161.844C1936.52 166.791 1940.75 171.607 1945.47 176.956C1941.87 179.295 1938.16 181.554 1934.33 184.142C1929.31 178.525 1924.59 172.997 1919.6 167.563Z" fill="#1A1A1A"/>
<path fill-rule="evenodd" clip-rule="evenodd" d="M1730.31 127.645C1740.97 126.183 1751.12 124.935 1760.97 123.396C1767.12 130.756 1773.31 137.854 1779.82 145.242C1770.43 147.219 1760.44 149.085 1749.79 151.709C1743.25 143.476 1736.7 135.551 1730.31 127.645H1730.31Z" fill="#1A1A1A"/>
<path fill-rule="evenodd" clip-rule="evenodd" d="M1736.03 58.1787C1745.22 58.6576 1753.94 59.0784 1762.25 59.4715C1767.37 64.5429 1772.44 69.6863 1777.67 74.5971C1769.36 74.6469 1761.04 74.5307 1752.1 74.4089C1746.91 68.9167 1741.41 63.5463 1736.03 58.1787H1736.03Z" fill="#1A1A1A"/>
<path fill-rule="evenodd" clip-rule="evenodd" d="M1557.65 269.619C1581.03 260.08 1602.47 251.645 1622.87 243.847C1630.82 258.507 1639.33 274.261 1647.09 291.139C1627.06 301.586 1606.08 312.194 1582.62 323.544C1574.69 305.205 1566.13 287.034 1557.65 269.619H1557.65Z" fill="#1A1A1A"/>
<path fill-rule="evenodd" clip-rule="evenodd" d="M1690.01 217.643C1704.81 212.156 1718.89 207.276 1731.94 202.473C1739.55 213.327 1747.29 224.834 1754.83 236.469C1742.35 242.842 1728.61 249.314 1714.56 255.861C1706.38 243.044 1698.21 229.85 1690.02 217.645L1690.01 217.643Z" fill="#1A1A1A"/>
<path fill-rule="evenodd" clip-rule="evenodd" d="M1779.78 186.866C1790 183.414 1799.32 180.261 1808.2 177.014C1814.64 184.925 1821.38 193.521 1827.84 202.357C1819.39 206.432 1810.13 210.756 1800.78 215.224C1794.03 205.407 1786.75 195.788 1779.78 186.866H1779.78Z" fill="#1A1A1A"/>
<path fill-rule="evenodd" clip-rule="evenodd" d="M1813.28 175.444C1821.74 172.609 1829.67 170.104 1837.27 167.814C1843.64 175.314 1849.82 182.926 1856.18 190.497C1848.95 193.578 1841.59 196.673 1833.62 200.524C1826.71 191.682 1820.1 183.167 1813.28 175.444Z" fill="#1A1A1A"/>
<path fill-rule="evenodd" clip-rule="evenodd" d="M1840.55 166.981C1847.59 164.714 1854.43 162.483 1861.14 160.216C1866.73 166.826 1872.32 173.323 1878.03 180.064C1871.85 182.824 1865.33 185.922 1858.69 188.906C1852.47 181.429 1846.34 174.04 1840.55 166.979L1840.55 166.981Z" fill="#1A1A1A"/>
<path fill-rule="evenodd" clip-rule="evenodd" d="M1865.57 158.873C1871.58 157.065 1877.47 155.327 1882.85 153.597C1888.47 159.845 1893.8 165.658 1899.07 171.906C1894.02 173.891 1888.59 176.141 1882.65 178.976C1877.04 171.864 1871.13 165.201 1865.57 158.873Z" fill="#1A1A1A"/>
<path fill-rule="evenodd" clip-rule="evenodd" d="M1885.49 153.038C1890.95 151.535 1895.85 149.813 1900.77 148.401C1905.59 153.597 1910.51 159.184 1915.09 164.596C1910.65 166.536 1906.08 168.693 1900.77 170.489C1895.84 164.872 1890.61 158.791 1885.49 153.038H1885.49Z" fill="#1A1A1A"/>
<path fill-rule="evenodd" clip-rule="evenodd" d="M1903.39 147.56C1908.1 146.295 1912.54 145.198 1916.72 143.978C1921.14 148.786 1925.69 153.517 1929.88 158.226C1926.05 159.679 1921.85 161.393 1917.68 163.449C1913.02 157.999 1908.22 152.814 1903.39 147.56Z" fill="#1A1A1A"/>
<path fill-rule="evenodd" clip-rule="evenodd" d="M1918.65 143.374C1922.64 142.278 1926.46 141.115 1930.12 139.842C1934.2 144.229 1938.32 148.603 1942.17 152.869C1938.95 154.408 1935.4 155.936 1931.76 157.367C1927.4 152.761 1923.08 148.025 1918.65 143.374H1918.65Z" fill="#1A1A1A"/>
<path fill-rule="evenodd" clip-rule="evenodd" d="M1798.77 119.523C1806.76 118.709 1814.44 118.092 1821.81 117.286C1827.26 123.141 1832.82 129.137 1838.36 135.05C1831.25 136.24 1824.15 137.666 1816.18 139.277C1810.36 132.564 1804.61 125.887 1798.77 119.523Z" fill="#1A1A1A"/>
<path fill-rule="evenodd" clip-rule="evenodd" d="M1825.16 116.755C1832.11 115.883 1838.89 115.294 1844.99 114.482C1850.33 119.952 1855.61 125.547 1860.57 131.025C1854.54 132.194 1848.31 133.373 1841.58 134.447C1836.24 128.708 1830.61 122.591 1825.16 116.755Z" fill="#1A1A1A"/>
<path fill-rule="evenodd" clip-rule="evenodd" d="M1848.02 114.147C1854.36 113.538 1860.04 112.998 1865.55 112.47C1870.33 117.309 1875.34 122.496 1880.1 127.465C1874.8 128.462 1869.32 129.469 1863.55 130.69C1858.52 125.038 1853.23 119.457 1848.02 114.147Z" fill="#1A1A1A"/>
<path fill-rule="evenodd" clip-rule="evenodd" d="M1868.15 112.171C1873.55 111.656 1878.67 111.343 1883.56 110.892C1888.04 115.404 1892.81 120.395 1897.13 124.835C1892.47 125.619 1887.59 126.2 1882.59 126.986C1878.02 122.228 1872.93 117.04 1868.15 112.171H1868.15Z" fill="#1A1A1A"/>
<path fill-rule="evenodd" clip-rule="evenodd" d="M1885.96 110.717C1890.68 110.194 1895.09 109.554 1899.52 109.38C1903.68 113.513 1907.94 117.815 1912.15 122.26C1908.18 122.944 1903.96 123.728 1899.4 124.572C1895.01 119.899 1890.36 115.221 1885.96 110.717Z" fill="#1A1A1A"/>
<path fill-rule="evenodd" clip-rule="evenodd" d="M1901.57 109.308C1905.7 108.915 1909.5 108.553 1913.36 108.298C1917.42 112.215 1921.5 116.245 1925.03 119.988C1921.65 120.664 1918.03 121.361 1914.02 121.862C1909.95 117.524 1905.9 113.427 1901.58 109.308H1901.57Z" fill="#1A1A1A"/>
<path fill-rule="evenodd" clip-rule="evenodd" d="M1915.1 108.167C1918.8 107.791 1922.4 107.55 1925.63 107.201C1929.36 110.828 1933.03 114.567 1936.67 118.18C1933.62 118.891 1930.14 119.254 1926.86 119.736C1923.03 115.952 1919.24 112.084 1915.1 108.17V108.167Z" fill="#1A1A1A"/>
<path fill-rule="evenodd" clip-rule="evenodd" d="M1920.76 85.8691C1915.12 85.3819 1909.42 85.3958 1903.21 85.1134C1902.05 85.0054 1900.73 84.9086 1899.37 84.4961C1905.85 85.1134 1911.79 84.975 1917.52 85.3183C1918.87 85.8193 1919.9 85.6394 1920.76 85.8719V85.8691Z" fill="#1A1A1A"/>
<path fill-rule="evenodd" clip-rule="evenodd" d="M1807.79 97.5651C1814.98 97.1084 1822.11 96.8537 1828.55 96.4385C1833.71 101.596 1838.81 106.841 1843.79 112.181C1837.42 112.821 1830.64 113.438 1823.88 114.222C1818.55 108.475 1813.03 102.772 1807.79 97.5624L1807.79 97.5651Z" fill="#1A1A1A"/>
<path fill-rule="evenodd" clip-rule="evenodd" d="M1831.68 96.2592C1838.12 96.1567 1844.22 96.0266 1849.96 95.7803C1854.61 100.547 1859.73 105.538 1864.23 110.297C1858.81 110.828 1852.92 111.241 1846.83 111.736C1841.9 106.54 1836.71 101.289 1831.68 96.2619V96.2592Z" fill="#1A1A1A"/>
<path fill-rule="evenodd" clip-rule="evenodd" d="M1852.72 95.7576C1858.4 95.6192 1863.74 95.6275 1869 95.5029C1873.47 99.7522 1877.93 104.273 1882.26 108.929C1877.32 109.197 1872.2 109.554 1866.87 110.177C1862.43 105.441 1857.39 100.428 1852.72 95.7548L1852.72 95.7576Z" fill="#1A1A1A"/>
<path fill-rule="evenodd" clip-rule="evenodd" d="M1871.45 95.351C1876.47 95.2486 1881.14 95.3371 1885.68 95.1904C1889.97 99.2957 1894.14 103.387 1898.2 107.448C1893.92 107.636 1889.45 108.173 1884.67 108.691C1880.3 104.245 1875.84 99.6528 1871.45 95.351Z" fill="#1A1A1A"/>
<path fill-rule="evenodd" clip-rule="evenodd" d="M1887.87 95.0877C1892.36 95.1735 1896.28 94.9631 1900.38 95.0019C1904.42 98.8968 1908.35 102.645 1912.16 106.46C1908.37 106.8 1904.43 107.121 1900.25 107.381C1896.19 103.248 1892.07 99.3397 1887.87 95.0877Z" fill="#1A1A1A"/>
<path fill-rule="evenodd" clip-rule="evenodd" d="M1902.25 94.863C1906.27 94.8188 1909.9 94.8049 1913.54 94.6748C1917.26 98.2624 1920.86 101.809 1924.48 105.427C1921.23 106.052 1917.71 106.21 1914.03 106.465C1910.08 102.548 1906.37 98.7635 1902.25 94.863H1902.25Z" fill="#1A1A1A"/>
<path fill-rule="evenodd" clip-rule="evenodd" d="M1915.23 94.7168C1918.62 94.7168 1922.06 94.8691 1925 94.7888C1928.4 97.9639 1931.88 101.363 1935.33 104.619C1932.37 104.793 1929.33 105.04 1926.11 105.419C1922.64 101.823 1918.88 98.2989 1915.23 94.7168Z" fill="#1A1A1A"/>
<path fill-rule="evenodd" clip-rule="evenodd" d="M1789.78 78.4365C1797.34 78.5168 1804.64 78.6248 1811.45 78.7936C1816.43 83.7709 1821.39 88.5572 1826.29 93.493C1819.58 93.7172 1812.53 94.0521 1805.45 94.3566C1800.14 89.0029 1794.81 83.5744 1789.78 78.4393V78.4365Z" fill="#1A1A1A"/>
<path fill-rule="evenodd" clip-rule="evenodd" d="M1814.64 79.0186C1821.29 79.0407 1827.73 79.3314 1833.73 79.5279C1838.44 84.0983 1843.18 88.6686 1847.75 93.2085C1841.92 93.1504 1835.67 93.2445 1829.38 93.5352C1824.57 88.4859 1819.65 83.755 1814.64 79.0186Z" fill="#1A1A1A"/>
<path fill-rule="evenodd" clip-rule="evenodd" d="M1836.76 79.5771C1842.66 79.6934 1848.37 79.9259 1853.77 80.1668C1858.07 84.2942 1862.45 88.5518 1866.83 93.028C1861.66 93.064 1856.24 93.1664 1850.65 93.2522C1846.09 88.6459 1841.35 83.9897 1836.76 79.5771H1836.76Z" fill="#1A1A1A"/>
<path fill-rule="evenodd" clip-rule="evenodd" d="M1856.24 80.1943C1861.61 80.4988 1866.25 80.593 1871.14 80.8698C1875.49 84.9031 1879.44 88.7759 1883.62 92.8064C1878.95 92.8286 1874.2 92.7787 1869.12 92.8784C1865.01 88.5931 1860.63 84.3356 1856.24 80.1943Z" fill="#1A1A1A"/>
<path fill-rule="evenodd" clip-rule="evenodd" d="M1873.66 81.0801C1878.12 81.1659 1882.48 81.2905 1886.83 81.5451C1890.85 85.4179 1894.7 89.0941 1898.44 92.7122C1894.55 92.9087 1890.36 92.9364 1885.8 92.8368C1881.76 88.7896 1877.73 84.9971 1873.66 81.0801Z" fill="#1A1A1A"/>
<path fill-rule="evenodd" clip-rule="evenodd" d="M1888.96 81.6123C1893.21 81.903 1896.95 82.0635 1900.54 82.2075C1904.34 85.701 1908.22 89.2249 1911.7 92.6409C1908.15 92.6991 1904.44 92.8153 1900.37 92.7129C1896.63 89.1087 1892.85 85.4408 1888.96 81.6123Z" fill="#1A1A1A"/>
<path fill-rule="evenodd" clip-rule="evenodd" d="M1902.77 82.6279C1906.55 82.9407 1909.9 83.1151 1913.31 83.3172C1916.78 86.6003 1920.42 89.9859 1923.77 93.3742C1920.57 93.1278 1917.19 93.0836 1913.67 92.9396C1910.18 89.662 1906.7 86.3872 1902.77 82.6307V82.6279Z" fill="#1A1A1A"/>
<path fill-rule="evenodd" clip-rule="evenodd" d="M1798.61 63.0537C1805.53 63.4468 1812.08 63.7153 1818.41 64.2302C1823.11 68.6981 1827.64 73.0221 1832.22 77.6783C1825.97 77.2575 1819.72 77.2132 1812.95 77.0167C1808.35 72.3522 1803.54 67.696 1798.61 63.0537H1798.61Z" fill="#1A1A1A"/>
<path fill-rule="evenodd" clip-rule="evenodd" d="M1821.58 64.6758C1827.78 64.9581 1833.48 65.4896 1839.23 66.0931C1843.59 70.1043 1847.82 74.193 1852.16 78.3564C1846.57 77.8913 1841.14 77.8775 1835.1 77.6892C1830.55 73.249 1825.98 68.7312 1821.58 64.6758Z" fill="#1A1A1A"/>
<path fill-rule="evenodd" clip-rule="evenodd" d="M1841.88 66.3174C1847.34 66.7382 1852.4 67.2752 1857.52 67.8288C1861.67 71.577 1865.67 75.4802 1869.84 79.3945C1864.9 78.8935 1860.05 78.7911 1854.63 78.3924C1850.56 74.4698 1846.24 70.4227 1841.88 66.3174Z" fill="#1A1A1A"/>
<path fill-rule="evenodd" clip-rule="evenodd" d="M1860.01 68.0088C1864.84 68.4379 1869.39 68.6981 1873.9 69.1271C1877.79 72.7591 1881.58 76.3495 1885.44 80.0312C1881.1 79.807 1876.82 79.616 1872.01 79.4001C1867.9 75.5356 1864.09 71.7791 1860.01 68.0088Z" fill="#1A1A1A"/>
<path fill-rule="evenodd" clip-rule="evenodd" d="M1876.14 69.3984C1880.22 69.667 1884.27 70.0517 1888.45 70.6414C1892.12 73.9826 1895.79 77.4651 1899.35 80.798C1895.55 80.6153 1891.62 80.2388 1887.57 80.1364C1883.63 76.4519 1879.83 72.9584 1876.14 69.3984Z" fill="#1A1A1A"/>
<path fill-rule="evenodd" clip-rule="evenodd" d="M1900.92 73.2412C1904.51 73.6841 1907.94 74.0911 1911.09 74.3679C1914.33 77.3382 1917.79 80.4857 1921.12 83.611C1917.95 83.3287 1914.69 83.2539 1911.43 83.0518C1908.12 79.8102 1904.55 76.5354 1900.92 73.244V73.2412Z" fill="#1A1A1A"/>
<path fill-rule="evenodd" clip-rule="evenodd" d="M1913.03 74.5332C1916.1 74.8017 1919.03 74.9983 1921.87 75.3554C1924.85 78.2177 1927.85 80.8918 1930.71 83.6878C1928.2 83.6518 1925.33 83.4469 1922.59 83.3611C1919.53 80.5126 1916.21 77.4094 1913.03 74.5332Z" fill="#1A1A1A"/>
<path fill-rule="evenodd" clip-rule="evenodd" d="M1806.1 50.3838C1812.32 51.1174 1818.33 51.8233 1824.38 52.543C1828.67 56.5237 1832.85 60.3827 1837.25 64.4298C1831.32 63.6602 1825.74 63.3253 1819.39 62.6415C1815.05 58.4504 1810.54 54.5029 1806.1 50.3838Z" fill="#1A1A1A"/>
<path fill-rule="evenodd" clip-rule="evenodd" d="M1827.16 52.8338C1832.7 53.4373 1838.27 54.2207 1843.56 54.8823C1847.49 58.5807 1851.58 62.315 1855.68 66.1435C1850.5 65.5705 1845.49 65.1691 1839.9 64.704C1835.5 60.5932 1831.31 56.7703 1827.16 52.8311V52.8338Z" fill="#1A1A1A"/>
<path fill-rule="evenodd" clip-rule="evenodd" d="M1846.1 55.1777C1851.02 55.7369 1855.85 56.3985 1860.8 57.1404C1864.57 60.6727 1868.17 63.906 1872.11 67.5241C1867.6 67.095 1863 66.7323 1858.16 66.4112C1854.14 62.5606 1849.98 58.7377 1846.1 55.1777Z" fill="#1A1A1A"/>
<path fill-rule="evenodd" clip-rule="evenodd" d="M1862.95 57.4756C1867.32 58.1427 1871.69 58.7185 1875.84 59.2777C1879.44 62.5774 1883.21 65.8883 1886.79 69.1382C1882.68 68.7174 1878.63 68.2745 1874.36 67.7928C1870.41 64.2245 1866.67 60.8473 1862.95 57.4756Z" fill="#1A1A1A"/>
<path fill-rule="evenodd" clip-rule="evenodd" d="M1889.21 62.1182C1892.97 62.7216 1896.45 63.1369 1899.72 63.5576C1903.09 66.6442 1906.5 69.6837 1909.71 72.7925C1906.49 72.4575 1903.2 72.1253 1899.55 71.6603C1896.15 68.5072 1892.76 65.4124 1889.21 62.1209V62.1182Z" fill="#1A1A1A"/>
<path fill-rule="evenodd" clip-rule="evenodd" d="M1902.14 64.4852C1905.47 64.9281 1908.43 65.3932 1911.46 65.9524C1914.6 68.7483 1917.69 71.5165 1920.99 74.4951C1918.15 74.1242 1915.08 73.8917 1912.02 73.637C1908.8 70.5698 1905.54 67.533 1902.14 64.4824L1902.14 64.4852Z" fill="#1A1A1A"/>
<path fill-rule="evenodd" clip-rule="evenodd" d="M1792.74 35.6756C1799.3 36.7026 1805.5 37.6189 1811.46 38.6459C1815.74 42.2003 1819.8 45.8544 1824.19 49.8573C1818.19 48.941 1812.12 48.2877 1805.93 47.4877C1801.51 43.4128 1797.15 39.5456 1792.74 35.6729L1792.74 35.6756Z" fill="#1A1A1A"/>
<path fill-rule="evenodd" clip-rule="evenodd" d="M1814.29 38.9424C1820.16 39.95 1825.76 40.7362 1831.25 41.6857C1835.06 45.2097 1839.05 48.6091 1843.09 52.3019C1837.76 51.5323 1832.26 50.8569 1826.69 50.0125C1822.61 46.3142 1818.54 42.7099 1814.29 38.9424Z" fill="#1A1A1A"/>
<path fill-rule="evenodd" clip-rule="evenodd" d="M1799.09 25.8457C1805.06 26.8949 1810.78 28.0464 1816.37 29.0873C1820.39 32.6389 1824.33 36.0466 1828.26 39.4654C1822.99 38.563 1817.26 37.691 1811.25 36.6723C1807.28 33.1483 1803.14 29.5053 1799.09 25.8457H1799.09Z" fill="#1A1A1A"/>
<path fill-rule="evenodd" clip-rule="evenodd" d="M1734.19 29.5752C1742.77 30.7572 1750.76 31.8562 1758.37 32.6452C1763.43 36.9941 1768.06 41.4564 1772.54 45.642C1765.16 45.0247 1757.3 44.1389 1748.97 43.2447C1744.23 38.7297 1739.29 34.1538 1734.19 29.578L1734.19 29.5752Z" fill="#1A1A1A"/>
<path fill-rule="evenodd" clip-rule="evenodd" d="M1917.39 123.7C1921.25 123.105 1924.8 122.435 1928.18 121.724C1932.4 126.003 1936.36 130.114 1940.06 134.009C1936.95 134.895 1933.59 135.999 1930.14 137.038C1925.81 132.467 1921.8 128.268 1917.39 123.697V123.7Z" fill="#1A1A1A"/>
<path fill-rule="evenodd" clip-rule="evenodd" d="M1903.22 126.671C1907.61 125.923 1911.68 125.079 1915.66 124.273C1919.91 128.786 1924.15 133.129 1928.4 137.619C1924.76 138.804 1920.86 139.958 1916.88 141.121C1912.37 136.216 1907.67 131.299 1903.22 126.671Z" fill="#1A1A1A"/>
<path fill-rule="evenodd" clip-rule="evenodd" d="M1885.29 129.264C1890.33 128.262 1895.15 127.512 1899.64 126.858C1904.24 131.437 1908.91 136.448 1913.49 141.339C1909.25 142.349 1904.66 143.437 1900.09 144.943C1895.06 139.429 1890.27 134.308 1885.28 129.264H1885.29Z" fill="#1A1A1A"/>
<path fill-rule="evenodd" clip-rule="evenodd" d="M1866.85 132.52C1872.53 131.416 1878.12 130.167 1883.02 129.201C1888.05 134.469 1893.14 139.662 1897.95 145.047C1893.1 146.522 1887.98 148.133 1882.39 149.451C1877.27 143.768 1872.1 138.253 1866.85 132.523V132.52Z" fill="#1A1A1A"/>
<path fill-rule="evenodd" clip-rule="evenodd" d="M1844.93 136.423C1851.51 135.282 1858.03 134.294 1863.66 132.675C1868.97 138.51 1874.39 144.396 1879.42 150.126C1873.83 151.74 1867.96 153.381 1861.74 154.942C1856.05 148.578 1850.61 142.555 1844.93 136.423H1844.93Z" fill="#1A1A1A"/>
<path fill-rule="evenodd" clip-rule="evenodd" d="M1820.1 141.661C1827.83 140.069 1834.93 138.646 1841.61 137.135C1847.35 143.419 1853.14 149.697 1858.79 156.244C1851.83 158.168 1845.4 160.568 1838.02 162.447C1831.93 155.458 1825.91 148.498 1820.1 141.661Z" fill="#1A1A1A"/>
<path fill-rule="evenodd" clip-rule="evenodd" d="M1791.4 148.213C1800.44 146.447 1808.45 144.778 1816.52 143.025C1822.55 149.927 1828.56 156.952 1834.58 163.82C1827.04 166.306 1819.06 168.74 1810.68 171.231C1804.05 163.173 1797.75 155.596 1791.4 148.213Z" fill="#1A1A1A"/>
<path fill-rule="evenodd" clip-rule="evenodd" d="M1492.69 108.32C1498.37 103.785 1503.94 99.2095 1509.03 95.0322C1517.25 99.6746 1525.44 103.999 1533.71 108.901C1529.09 113.704 1524.53 118.739 1519 123.891C1510.09 118.637 1501.18 113.413 1492.69 108.32H1492.69Z" fill="#1A1A1A"/>
<path fill-rule="evenodd" clip-rule="evenodd" d="M1771.73 99.0135C1773.99 96.7408 1776.2 94.6259 1778.5 92.8154C1781.7 95.0522 1785.04 97.4356 1788.33 99.7028C1786.29 101.854 1784.35 104.165 1782.28 106.765C1778.73 104.121 1775.2 101.497 1771.72 99.0135H1771.73Z" fill="#1A1A1A"/>
<path fill-rule="evenodd" clip-rule="evenodd" d="M1861.29 15.05C1862.17 13.7101 1862.98 12.315 1863.72 10.917C1866.6 13.2949 1869.68 15.8694 1872.7 18.3774C1872.23 19.9857 1871.56 21.4557 1870.81 23.0308C1867.65 20.3816 1864.44 17.6881 1861.29 15.05H1861.29Z" fill="#1A1A1A"/>
<path fill-rule="evenodd" clip-rule="evenodd" d="M1393.43 247.482C1400.54 241.931 1407.24 236.614 1413.76 231.933C1422.24 234.535 1430.56 237.616 1439.29 240.556C1432.96 245.671 1426.73 251.2 1420.32 257.157C1411.22 253.741 1401.9 250.663 1393.43 247.479L1393.43 247.482Z" fill="#1A1A1A"/>
<path fill-rule="evenodd" clip-rule="evenodd" d="M1840.99 33.0543C1841.69 32.2875 1842.24 31.5401 1842.79 30.8203C1844.67 32.1767 1846.55 33.5083 1848.37 34.837C1847.95 35.6592 1847.51 36.6253 1847.03 37.4336C1845.01 35.9803 1843.07 34.5381 1840.99 33.0515V33.0543Z" fill="#1A1A1A"/>
<path fill-rule="evenodd" clip-rule="evenodd" d="M1776.45 -2.02789C1778.14 -2.74487 1779.74 -3.37879 1781.33 -3.96289C1783.71 -2.34347 1786.1 -0.668692 1788.54 1.09744C1787.21 1.89746 1785.75 2.6089 1784.08 3.52796C1781.6 1.59296 1779.02 -0.214701 1776.45 -2.02513V-2.02789Z" fill="#1A1A1A"/>
<path fill-rule="evenodd" clip-rule="evenodd" d="M1417.23 63.6659C1423.92 60.9198 1430.14 58.5226 1436.06 56.2637C1443.71 59.425 1450.95 62.4534 1457.88 65.6646C1452.53 68.3249 1446.91 71.0488 1440.61 74.3984C1432.53 70.6419 1424.67 66.9158 1417.23 63.6659Z" fill="#1A1A1A"/>
<path fill-rule="evenodd" clip-rule="evenodd" d="M1388.29 153.78C1393.05 151.507 1396.91 149.362 1400.98 147.308C1406.95 148.993 1412.68 150.519 1418.38 152.169C1414.88 154.275 1410.92 156.731 1406.73 159.056C1400.48 157.362 1394.36 155.518 1388.29 153.78Z" fill="#1A1A1A"/>
<path fill-rule="evenodd" clip-rule="evenodd" d="M1849.81 20.0992C1850.77 19.7836 1851.68 19.421 1852.56 19.1885C1853.97 20.1435 1855.52 21.1678 1857.01 22.12C1856.12 22.4356 1855.22 22.7678 1854.39 23.1443C1852.91 22.1394 1851.36 21.129 1849.81 20.0992Z" fill="#1A1A1A"/>
<path fill-rule="evenodd" clip-rule="evenodd" d="M1699.77 33.309C1701.87 32.7637 1703.87 32.2073 1705.8 31.6924C1708.34 33.0571 1710.81 34.3554 1713.49 35.7838C1711.51 36.2351 1709.57 36.8524 1707.62 37.4254C1705.1 36.0191 1702.33 34.6239 1699.77 33.309Z" fill="#1A1A1A"/>
<path fill-rule="evenodd" clip-rule="evenodd" d="M1873.16 41.7158C1874.05 41.403 1874.96 40.9906 1875.78 40.6611C1877.16 41.583 1878.41 42.4273 1879.73 43.3269C1878.98 43.6757 1878.22 44.0688 1877.39 44.4896C1876.01 43.5318 1874.61 42.6958 1873.16 41.7131V41.7158Z" fill="#1A1A1A"/>
<path fill-rule="evenodd" clip-rule="evenodd" d="M1861.8 5.07295C1862.59 4.87087 1863.35 4.79336 1864.13 4.64941C1865.27 5.42452 1866.47 6.29098 1867.62 7.01902C1866.98 7.15743 1866.19 7.35674 1865.54 7.5782C1864.28 6.70621 1863.08 5.86467 1861.8 5.07572V5.07295Z" fill="#1A1A1A"/>
<path fill-rule="evenodd" clip-rule="evenodd" d="M1287 204.784C1293.36 202.874 1300.09 200.607 1306.88 198.639C1313.18 199.984 1319.98 200.942 1326.37 202.118C1320.26 203.984 1313.64 206.171 1307.53 208.339C1300.38 207.14 1293.78 206.035 1287 204.787V204.784Z" fill="#1A1A1A"/>
<path fill-rule="evenodd" clip-rule="evenodd" d="M1601.12 81.496C1604.29 80.7264 1607.68 80.2669 1610.91 79.5693C1614.09 80.6739 1616.99 81.64 1619.84 82.7749C1616.9 83.312 1613.73 84.0677 1610.42 84.8234C1607.32 83.6829 1604.14 82.5867 1601.13 81.496H1601.12Z" fill="#1A1A1A"/>
<path fill-rule="evenodd" clip-rule="evenodd" d="M1611.93 138.848C1614.79 137.068 1617.61 135.297 1620.46 133.755C1624.44 135.28 1628.5 137.074 1632.58 138.804C1629.94 140.562 1627.31 142.276 1624.65 144.274C1620.22 142.27 1616.03 140.59 1611.93 138.846V138.848Z" fill="#1A1A1A"/>
<path fill-rule="evenodd" clip-rule="evenodd" d="M1681.11 68.0254C1683.68 66.5582 1686.06 65.2488 1688.26 63.9727C1691.65 65.8468 1695.18 67.8371 1698.71 69.8635C1696.49 71.2227 1694.51 72.8559 1692.04 74.2594C1688.29 72.1583 1684.7 70.0683 1681.11 68.0254Z" fill="#1A1A1A"/>
</g>
<g clip-path="url(#clip2_12_414)">
<path fill-rule="evenodd" clip-rule="evenodd" d="M29.6831 217.734C26.4475 212.356 23.8081 206.442 21.2187 201.166C19.8414 203.291 15.8943 226.543 10.4414 263H22.2392C25.8121 236.238 28.4689 219.642 29.6831 217.734Z" fill="#1A1A1A"/>
<path fill-rule="evenodd" clip-rule="evenodd" d="M19.5796 202.309C16.9641 197.316 14.5336 192.562 12.0748 188.95C10.7366 190.887 5.96048 219.387 -0.606445 263H10.0577C14.8295 227.201 18.2979 204.358 19.5796 202.309Z" fill="#1A1A1A"/>
<path fill-rule="evenodd" clip-rule="evenodd" d="M10.8977 187.5C8.69354 184.36 6.58943 181.378 4.51142 178.543C2.05046 192.771 -0.440966 206.811 -2.8323 220.765C-5.26498 234.935 -7.66502 249.033 -10.002 262.969L-9.84529 262.997H-0.258189C3.31467 238.2 7.10947 212.948 10.8977 187.498V187.5Z" fill="#1A1A1A"/>
<path fill-rule="evenodd" clip-rule="evenodd" d="M3.64789 177.068C1.80706 174.131 0.0510921 171.519 -1.62001 169.059C-4.78815 184.678 -7.95194 200.127 -10.9982 215.279C-14.0728 230.585 -17.0908 245.716 -20 260.553V261.161C-17.2366 261.682 -14.397 262.199 -11.4813 262.671C-9.103 248.625 -6.58764 234.357 -4.05051 219.967C-1.55691 205.818 1.09771 191.534 3.64789 177.068Z" fill="#1A1A1A"/>
<path fill-rule="evenodd" clip-rule="evenodd" d="M120.499 263C114.226 256.906 108.264 251.237 102.607 245.45C99.1254 251.17 95.4851 257.071 91.8535 263H120.499Z" fill="#1A1A1A"/>
<path fill-rule="evenodd" clip-rule="evenodd" d="M99.3774 242.527C92.9019 235.723 86.8942 230.084 81.2411 224.875C74.8548 233.674 68.9363 242.215 62.6914 251.683C65.4831 255.102 68.3336 258.941 71.3168 263.003H86.5743C90.8739 255.976 95.1387 249.183 99.3774 242.527Z" fill="#1A1A1A"/>
<path fill-rule="evenodd" clip-rule="evenodd" d="M78.5929 222.085C72.9921 217.086 68.0592 212.334 63.2701 207.762C57.6714 215.264 51.927 223.267 46.3262 231.161C50.6019 236.625 55.3214 242.213 60.1759 248.386C66.3468 239.464 72.2566 230.815 78.5929 222.085Z" fill="#1A1A1A"/>
<path fill-rule="evenodd" clip-rule="evenodd" d="M60.951 205.659C56.5338 201.792 52.2995 197.866 48.335 194.22C43.3717 200.792 38.2235 207.176 33.0078 213.986C36.6394 218.467 40.3428 223.198 44.2899 228.519C49.8494 220.856 55.4698 212.951 60.9531 205.659H60.951Z" fill="#1A1A1A"/>
<path fill-rule="evenodd" clip-rule="evenodd" d="M34.5747 180.805C31.5349 177.795 28.543 175.109 25.6534 172.513C21.5562 177.362 17.0803 182.696 12.9961 187.853C15.3113 190.965 17.9985 194.289 20.6771 198.076C25.3292 191.987 29.8725 186.676 34.5747 180.805Z" fill="#1A1A1A"/>
<path fill-rule="evenodd" clip-rule="evenodd" d="M23.9731 171.621C21.3903 169.093 18.777 166.799 16.5053 164.237C12.8411 168.559 8.99842 173.012 5.42773 177.334C7.37518 180.253 9.54675 183.179 11.8141 186.297C15.7764 181.441 19.9999 176.375 23.9731 171.621Z" fill="#1A1A1A"/>
<path fill-rule="evenodd" clip-rule="evenodd" d="M14.8607 162.761C12.7609 160.439 10.7482 158.325 8.82034 156.224C5.4716 160.034 2.01842 164.062 -1.15625 167.816C0.382125 170.225 2.19902 172.666 4.10295 175.353C7.67145 171.077 11.4467 166.795 14.8629 162.761H14.8607Z" fill="#1A1A1A"/>
<path fill-rule="evenodd" clip-rule="evenodd" d="M7.60802 155.053C5.77372 153.252 4.14179 151.378 2.39887 149.641C-0.501626 152.906 -3.56097 156.252 -6.46582 159.517C-5.24295 161.869 -3.81338 164.181 -2.49912 166.667C0.869202 162.884 4.38331 158.874 7.60802 155.053Z" fill="#1A1A1A"/>
<path fill-rule="evenodd" clip-rule="evenodd" d="M1.72202 148.733C0.187995 147.079 -1.20894 145.16 -2.41223 143.45C-5.11254 146.363 -7.65184 149.232 -10.5371 152.333C-9.35123 154.424 -8.1523 156.4 -6.88374 158.546C-4.04852 155.382 -1.11756 152.1 1.72419 148.733H1.72202Z" fill="#1A1A1A"/>
<path fill-rule="evenodd" clip-rule="evenodd" d="M6.4502 87.2381C8.22575 86.2838 9.8925 85.3857 11.7203 84.6543C11.7181 84.9161 11.7725 85.0741 11.9379 85.0568C9.99695 85.9657 7.9407 87.1689 6.32617 88.0323C6.3327 87.6796 6.3327 87.5779 6.4502 87.2381Z" fill="#1A1A1A"/>
<path fill-rule="evenodd" clip-rule="evenodd" d="M184.989 252.92C174.029 245.543 164.54 238.556 154.637 232.133C148.732 242.152 142.594 252.057 136.395 263.002H179.595C181.377 259.605 183.175 256.244 184.989 252.92Z" fill="#1A1A1A"/>
<path fill-rule="evenodd" clip-rule="evenodd" d="M150.199 229.287C141.488 223.148 133.342 217.268 125.802 211.88C119.479 221.291 113.217 230.668 106.98 240.624C114.3 247.4 121.792 254.943 130.354 262.269C136.919 250.732 143.743 239.964 150.199 229.287Z" fill="#1A1A1A"/>
<path fill-rule="evenodd" clip-rule="evenodd" d="M122.194 209.367C114.97 205.186 108.577 200.575 102.36 196.281C96.6247 203.959 90.6997 212.009 84.9727 220.408C90.8041 225.872 96.7857 231.448 103.49 237.845C109.878 227.826 115.849 218.387 122.194 209.367Z" fill="#1A1A1A"/>
<path fill-rule="evenodd" clip-rule="evenodd" d="M99.5296 193.998C93.5415 190.142 88.0821 186.234 82.8229 182.951C77.5594 189.523 71.9585 196.974 66.6123 204.574C71.5081 208.874 76.726 213.07 82.3573 217.887C87.8689 209.863 93.7547 201.888 99.5296 193.998Z" fill="#1A1A1A"/>
<path fill-rule="evenodd" clip-rule="evenodd" d="M80.3163 181.35C75.3074 178.378 70.7815 175.215 66.2925 172.631C61.301 178.497 56.5161 184.598 51.418 191.153C55.426 194.645 59.8366 198.207 64.2624 202.165C69.5543 195.225 75.0397 187.874 80.3163 181.35Z" fill="#1A1A1A"/>
<path fill-rule="evenodd" clip-rule="evenodd" d="M20.6178 81.3081C19.4537 81.1891 18.4006 81.0636 17.4606 80.8818C15.5327 82.7797 13.7637 84.5498 11.875 86.3503C12.8172 86.4801 13.7049 86.7874 14.7059 87.0211C16.6511 85.186 18.529 83.2774 20.6178 81.3081Z" fill="#1A1A1A"/>
<path fill-rule="evenodd" clip-rule="evenodd" d="M50.5954 162.045C47.0508 159.926 43.8414 157.682 40.5427 155.622C36.4563 160.478 32.2481 165.358 28.1182 170.32C31.0622 172.69 34.115 175.312 37.4006 177.948C41.7503 172.599 46.113 167.366 50.5954 162.045Z" fill="#1A1A1A"/>
<path fill-rule="evenodd" clip-rule="evenodd" d="M38.7022 154.962C35.7625 152.9 32.7968 151.043 29.9768 149.146C26.467 153.19 22.7963 157.421 19.2734 161.692C21.6713 164.084 24.2193 166.349 26.8696 168.814C30.7623 164.315 34.7268 159.63 38.7022 154.962Z" fill="#1A1A1A"/>
<path fill-rule="evenodd" clip-rule="evenodd" d="M28.221 148.022C25.5729 146.415 23.4405 144.534 21.0862 143.002C17.7418 146.733 14.3669 150.424 11.2031 154.105C13.131 156.122 15.2699 158.092 17.5633 160.301C21.208 155.86 24.7656 151.866 28.2188 148.022H28.221Z" fill="#1A1A1A"/>
<path fill-rule="evenodd" clip-rule="evenodd" d="M19.7541 141.979C17.5477 140.434 15.5436 138.867 13.4374 137.657C10.5151 140.821 7.44488 144.115 4.33984 147.817C6.01965 149.561 7.77997 151.264 9.74482 153.247C12.9717 149.594 16.4097 145.625 19.7541 141.979Z" fill="#1A1A1A"/>
<path fill-rule="evenodd" clip-rule="evenodd" d="M12.6934 136.992C10.8482 135.527 9.07699 134.294 7.5582 132.874C4.88182 135.772 2.12058 138.775 -0.544922 141.597C0.84549 143.237 2.24678 145.051 3.90918 146.828C6.82274 143.419 9.76893 140.206 12.6934 136.99V136.992Z" fill="#1A1A1A"/>
<path fill-rule="evenodd" clip-rule="evenodd" d="M6.47192 131.903C4.85086 130.847 3.54313 129.438 2.24194 128.229C-0.310418 130.886 -2.88671 133.682 -5.42383 136.527C-4.06388 137.761 -3.00638 139.408 -1.75523 140.907C0.912448 137.949 3.79772 134.824 6.47192 131.905V131.903Z" fill="#1A1A1A"/>
<path fill-rule="evenodd" clip-rule="evenodd" d="M1.52806 127.847C0.115886 126.819 -0.806704 125.449 -1.96429 124.274C-4.14892 126.547 -6.4097 128.966 -8.50293 131.273C-7.47154 132.563 -6.55983 134.004 -5.51974 135.493C-3.17193 132.937 -0.841519 130.375 1.52806 127.847Z" fill="#1A1A1A"/>
<path fill-rule="evenodd" clip-rule="evenodd" d="M366.163 149.215C348.294 145.454 331.874 141.747 316.41 138.22C310.45 147.83 304.366 157.008 298.67 166.856C313.671 171.03 330.221 176.41 348.546 181.889C354.508 170.548 360.288 159.819 366.165 149.215H366.163Z" fill="#1A1A1A"/>
<path fill-rule="evenodd" clip-rule="evenodd" d="M263.113 138.362C250.639 135.597 239.664 132.87 228.74 130.808C223.383 138.061 217.55 145.575 211.733 153.452C222.391 156.689 233.577 160.164 245.599 164.01C251.2 155.371 257.297 146.499 263.113 138.36V138.362Z" fill="#1A1A1A"/>
<path fill-rule="evenodd" clip-rule="evenodd" d="M248.437 81.9055C238.502 81.5074 229.206 80.9058 220.237 80.4297C215.191 85.9392 210.252 91.3125 205.504 96.8956C214.203 97.6854 223.442 98.6895 233.271 100.126C238.175 93.8335 243.071 87.7397 248.437 81.9055Z" fill="#1A1A1A"/>
<path fill-rule="evenodd" clip-rule="evenodd" d="M301.225 263C288.489 256.246 276.571 249.858 265.348 243.701C262.141 250.005 258.927 256.434 255.75 263H301.222H301.225Z" fill="#1A1A1A"/>
<path fill-rule="evenodd" clip-rule="evenodd" d="M257.723 239.747C243.101 231.972 230.218 224.476 217.613 217.768C211 229.206 204.226 241.509 197.485 253.787C201.611 256.839 205.81 259.899 210.117 263H246.374C250.214 255.053 253.99 247.33 257.723 239.747Z" fill="#1A1A1A"/>
<path fill-rule="evenodd" clip-rule="evenodd" d="M211.781 214.758C200.368 209.158 189.832 203.956 180.154 198.799C173.917 208.266 167.274 218.428 161.275 228.913C170.704 235.444 180.846 242.146 191.997 249.365C198.44 237.273 205.166 226.039 211.781 214.758Z" fill="#1A1A1A"/>
<path fill-rule="evenodd" clip-rule="evenodd" d="M174.856 197.362C165.427 192.541 156.835 188.325 148.688 184.298C143.072 192.279 137.147 200.537 131.191 208.935C139.014 214.263 147.578 220.136 156.597 226.314C162.786 215.892 168.754 206.674 174.856 197.36V197.362Z" fill="#1A1A1A"/>
<path fill-rule="evenodd" clip-rule="evenodd" d="M143.664 181.361C136.135 177.89 129.027 174.506 122.294 171.139C116.922 178.022 111.526 185.287 106.123 192.751C112.496 197.163 119.166 201.378 126.446 205.587C132.088 197.607 137.922 189.44 143.664 181.364V181.361Z" fill="#1A1A1A"/>
<path fill-rule="evenodd" clip-rule="evenodd" d="M118.402 169.167C112.283 165.709 106.426 163.157 100.614 160.63C95.5569 167.066 90.3674 173.642 85.0342 180.288C90.5306 183.371 96.2772 186.951 102.069 190.926C107.435 183.57 113.04 176.198 118.402 169.167Z" fill="#1A1A1A"/>
<path fill-rule="evenodd" clip-rule="evenodd" d="M98.0702 159.922C92.9067 157.423 87.8085 155.073 82.8452 152.993C78.4499 158.537 73.8 164.062 69.2109 169.589C73.7173 172.378 78.4891 175.382 83.3283 178.602C88.3068 172.274 93.3332 165.943 98.068 159.922H98.0702Z" fill="#1A1A1A"/>
<path fill-rule="evenodd" clip-rule="evenodd" d="M65.2681 144.716C61.1665 143.227 57.585 141.558 54.0273 139.916C50.1999 144.227 46.2201 148.754 42.5537 153.019C45.785 155.103 48.927 157.347 52.7827 159.323C56.8256 154.46 61.0033 149.548 65.2681 144.714V144.716Z" fill="#1A1A1A"/>
<path fill-rule="evenodd" clip-rule="evenodd" d="M52.1363 139.146C48.681 137.51 45.5607 135.88 42.4905 134.675C38.9263 138.542 35.6276 142.307 31.9395 146.488C34.7507 148.317 37.6447 150.082 40.6366 152.106C44.5554 147.715 48.2371 143.394 52.1363 139.146Z" fill="#1A1A1A"/>
<path fill-rule="evenodd" clip-rule="evenodd" d="M40.9608 134.073C38.1604 132.755 35.6189 131.388 32.9817 130.245C29.633 133.829 26.306 137.345 23.3271 140.894C25.5009 142.496 28.0576 144.03 30.5773 145.677C34.1545 141.719 37.5772 137.884 40.9586 134.073H40.9608Z" fill="#1A1A1A"/>
<path fill-rule="evenodd" clip-rule="evenodd" d="M31.0597 129.745C28.5052 128.598 26.2139 127.518 23.9945 126.28C21.3399 129.148 18.1891 132.517 15.4932 135.601C17.4167 136.992 19.6013 138.377 21.8099 139.946C24.7952 136.481 28.0025 133.069 31.0597 129.745Z" fill="#1A1A1A"/>
<path fill-rule="evenodd" clip-rule="evenodd" d="M22.7677 125.656C20.6353 124.708 18.5095 123.771 16.6382 122.816C14.0358 125.578 11.5335 128.309 8.94629 131.007C10.5848 132.245 12.4756 133.388 14.2599 134.915C17.0777 131.734 19.8128 128.696 22.7677 125.658V125.656Z" fill="#1A1A1A"/>
<path fill-rule="evenodd" clip-rule="evenodd" d="M16.0921 122.288C14.2317 121.403 12.6215 120.414 10.8438 119.613C8.59171 121.92 6.2069 124.458 3.80469 126.951C5.28866 128.064 6.72259 129.319 8.34365 130.598C10.8677 127.821 13.4897 125.106 16.0921 122.288Z" fill="#1A1A1A"/>
<path fill-rule="evenodd" clip-rule="evenodd" d="M10.0753 118.834C8.66098 117.789 7.25751 116.806 5.8584 116.068C3.55192 118.488 1.46522 120.686 -0.636719 122.928C0.46212 124.11 1.68716 125.207 2.97966 126.375C5.38187 123.796 7.7645 121.338 10.0753 118.832V118.834Z" fill="#1A1A1A"/>
<path fill-rule="evenodd" clip-rule="evenodd" d="M5.04479 115.54C3.77188 114.848 2.56424 114.121 1.53503 113.212C-0.418942 115.279 -2.2032 117.148 -4.30078 119.386C-3.3956 120.392 -2.48389 121.375 -1.45033 122.389C0.649434 120.208 2.73396 118.061 5.04479 115.54Z" fill="#1A1A1A"/>
<path fill-rule="evenodd" clip-rule="evenodd" d="M199.91 107.941C191.593 106.798 183.669 105.822 175.977 104.619C171.179 110.373 166.346 115.922 161.259 121.697C168.589 123.243 176.392 124.701 184.704 126.753C189.809 120.317 194.927 114.121 199.912 107.941H199.91Z" fill="#1A1A1A"/>
<path fill-rule="evenodd" clip-rule="evenodd" d="M45.5802 78.3156C43.3172 78.3329 41.1718 78.3373 39.1438 78.3719C36.7677 80.7523 34.3176 83.0743 32.0264 85.3854C34.0065 85.3508 35.7232 85.6819 37.8905 85.7598C40.3928 83.2604 42.9364 80.7675 45.5823 78.3135L45.5802 78.3156Z" fill="#1A1A1A"/>
<path fill-rule="evenodd" clip-rule="evenodd" d="M45.2236 70.9209C43.1717 71.1698 41.2264 71.358 39.342 71.5117C37.0356 73.6757 34.8314 75.7553 32.6729 77.7981C34.4071 77.8089 36.1978 77.7873 38.0452 77.7137C40.3604 75.5107 42.8213 73.1866 45.2236 70.9209Z" fill="#1A1A1A"/>
<path fill-rule="evenodd" clip-rule="evenodd" d="M439.332 263C433.268 260.445 427.343 257.928 421.564 255.441C420.593 257.924 419.64 260.445 418.7 263H439.334H439.332Z" fill="#1A1A1A"/>
<path fill-rule="evenodd" clip-rule="evenodd" d="M195.447 53.6377C188.275 54.0121 181.464 54.341 174.978 54.6483C170.979 58.6127 167.021 62.6334 162.938 66.4724C169.427 66.5113 175.92 66.4204 182.905 66.3252C186.956 62.0319 191.245 57.8337 195.445 53.6377H195.447Z" fill="#1A1A1A"/>
<path fill-rule="evenodd" clip-rule="evenodd" d="M334.708 218.926C316.456 211.469 299.719 204.875 283.791 198.779C277.586 210.24 270.943 222.555 264.885 235.749C280.521 243.916 296.899 252.208 315.209 261.081C321.4 246.744 328.087 232.54 334.706 218.926H334.708Z" fill="#1A1A1A"/>
<path fill-rule="evenodd" clip-rule="evenodd" d="M231.371 178.294C219.823 174.005 208.83 170.19 198.638 166.436C192.702 174.921 186.653 183.916 180.77 193.012C190.511 197.993 201.241 203.053 212.205 208.17C218.594 198.151 224.969 187.838 231.368 178.296L231.371 178.294Z" fill="#1A1A1A"/>
<path fill-rule="evenodd" clip-rule="evenodd" d="M161.293 154.235C153.314 151.536 146.034 149.072 139.101 146.533C134.075 152.718 128.815 159.437 123.77 166.345C130.371 169.53 137.597 172.91 144.893 176.403C150.168 168.729 155.849 161.209 161.295 154.235H161.293Z" fill="#1A1A1A"/>
<path fill-rule="evenodd" clip-rule="evenodd" d="M135.141 145.307C128.532 143.091 122.342 141.132 116.408 139.343C111.438 145.205 106.614 151.156 101.645 157.075C107.289 159.483 113.04 161.902 119.261 164.913C124.651 158.001 129.814 151.344 135.141 145.307Z" fill="#1A1A1A"/>
<path fill-rule="evenodd" clip-rule="evenodd" d="M113.852 138.691C108.351 136.919 103.014 135.175 97.7761 133.402C93.4134 138.57 89.0485 143.649 84.5879 148.918C89.4119 151.076 94.5057 153.497 99.6888 155.83C104.541 149.985 109.332 144.209 113.85 138.689L113.852 138.691Z" fill="#1A1A1A"/>
<path fill-rule="evenodd" clip-rule="evenodd" d="M94.3162 132.353C89.6228 130.94 85.025 129.581 80.8255 128.229C76.4389 133.113 72.2742 137.657 68.166 142.541C72.1044 144.093 76.3431 145.852 80.9844 148.068C85.3623 142.509 89.9752 137.3 94.3162 132.353Z" fill="#1A1A1A"/>
<path fill-rule="evenodd" clip-rule="evenodd" d="M78.7669 127.791C74.4999 126.616 70.6768 125.27 66.8342 124.166C63.0698 128.228 59.2315 132.595 55.6543 136.825C59.1249 138.342 62.6934 140.028 66.8363 141.433C70.6834 137.042 74.7676 132.288 78.7647 127.791H78.7669Z" fill="#1A1A1A"/>
<path fill-rule="evenodd" clip-rule="evenodd" d="M64.7893 123.508C61.112 122.519 57.6501 121.662 54.3819 120.708C50.9331 124.467 47.3841 128.165 44.1094 131.846C47.1013 132.982 50.3804 134.322 53.6355 135.93C57.2759 131.669 61.0228 127.615 64.7893 123.508Z" fill="#1A1A1A"/>
<path fill-rule="evenodd" clip-rule="evenodd" d="M52.876 120.237C49.7601 119.38 46.7791 118.471 43.9265 117.476C40.7388 120.906 37.5206 124.325 34.5156 127.659C37.0266 128.863 39.7988 130.057 42.6449 131.176C46.0502 127.575 49.4163 123.872 52.8782 120.237H52.876Z" fill="#1A1A1A"/>
<path fill-rule="evenodd" clip-rule="evenodd" d="M41.97 117.131C39.211 116.296 36.7609 115.355 34.3935 114.61C31.4625 117.547 28.5772 120.557 25.7246 123.476C27.8244 124.777 30.2309 125.952 32.8355 127.004C35.9057 123.641 38.8911 120.399 41.9722 117.131H41.97Z" fill="#1A1A1A"/>
<path fill-rule="evenodd" clip-rule="evenodd" d="M32.653 114.468C30.3595 113.678 28.0792 113.013 25.8684 112.405C23.451 114.933 20.7833 117.694 18.3311 120.38C20.3177 121.198 22.2564 122.128 24.3845 123.037C27.0608 120.23 29.8373 117.408 32.653 114.465V114.468Z" fill="#1A1A1A"/>
<path fill-rule="evenodd" clip-rule="evenodd" d="M25.2652 111.944C23.3569 111.165 21.4639 110.444 19.5186 109.804C17.2078 112.195 14.712 114.87 12.4316 117.285C14.1506 118.148 15.8174 119.068 17.6125 119.955C20.1235 117.298 22.7368 114.684 25.2674 111.946L25.2652 111.944Z" fill="#1A1A1A"/>
<path fill-rule="evenodd" clip-rule="evenodd" d="M18.6333 109.265C16.8774 108.611 15.302 108.034 13.6744 107.538C11.418 109.769 9.20725 111.95 7.04004 114.275C8.49355 114.974 9.89702 115.82 11.3658 116.746C13.7658 114.288 16.1484 111.743 18.6312 109.265H18.6333Z" fill="#1A1A1A"/>
<path fill-rule="evenodd" clip-rule="evenodd" d="M146.464 101.591C140.232 100.955 134.233 100.472 128.48 99.8428C124.226 104.42 119.887 109.107 115.56 113.729C121.11 114.66 126.652 115.774 132.876 117.034C137.415 111.786 141.906 106.566 146.464 101.591Z" fill="#1A1A1A"/>
<path fill-rule="evenodd" clip-rule="evenodd" d="M125.867 99.428C120.443 98.7463 115.142 98.2854 110.381 97.6514C106.212 101.927 102.089 106.301 98.2178 110.583C102.931 111.497 107.794 112.419 113.047 113.258C117.216 108.772 121.611 103.99 125.867 99.428Z" fill="#1A1A1A"/>
<path fill-rule="evenodd" clip-rule="evenodd" d="M108.018 97.3895C103.07 96.9134 98.633 96.4914 94.329 96.0781C90.6016 99.8608 86.6915 103.916 82.9707 107.801C87.1093 108.58 91.3893 109.367 95.8957 110.322C99.8167 105.903 103.953 101.54 108.018 97.3895Z" fill="#1A1A1A"/>
<path fill-rule="evenodd" clip-rule="evenodd" d="M92.2996 95.8435C88.087 95.441 84.0876 95.1965 80.2689 94.8438C76.7722 98.3711 73.0536 102.273 69.6787 105.744C73.3147 106.356 77.1269 106.811 81.0327 107.425C84.599 103.705 88.5744 99.65 92.3017 95.8435H92.2996Z" fill="#1A1A1A"/>
<path fill-rule="evenodd" clip-rule="evenodd" d="M78.3993 94.7083C74.7133 94.2993 71.2688 93.7994 67.8112 93.6631C64.5626 96.8939 61.2356 100.257 57.9521 103.732C61.0507 104.267 64.3493 104.879 67.907 105.539C71.3297 101.886 74.9591 98.2291 78.3993 94.7083Z" fill="#1A1A1A"/>
<path fill-rule="evenodd" clip-rule="evenodd" d="M66.2102 93.6063C62.9899 93.299 60.0197 93.0155 57.0061 92.8164C53.8358 95.8785 50.6502 99.0293 47.8955 101.955C50.5371 102.483 53.3658 103.028 56.4904 103.42C59.6694 100.029 62.8332 96.8263 66.208 93.6063H66.2102Z" fill="#1A1A1A"/>
<path fill-rule="evenodd" clip-rule="evenodd" d="M55.6498 92.7152C52.7623 92.4209 49.9489 92.2326 47.4291 91.96C44.5156 94.7948 41.6477 97.7184 38.8125 100.542C41.1864 101.099 43.9085 101.382 46.4652 101.759C49.4549 98.8004 52.4163 95.7773 55.6498 92.7174V92.7152Z" fill="#1A1A1A"/>
<path fill-rule="evenodd" clip-rule="evenodd" d="M45.9779 92.0052C43.4168 91.7779 41.032 91.5507 38.7713 91.3408C36.2951 93.903 33.6861 96.4803 31.0576 98.9906C33.2183 99.3541 35.5096 99.9059 37.692 100.393C40.4141 97.5645 43.1231 94.879 45.9779 92.0052Z" fill="#1A1A1A"/>
<path fill-rule="evenodd" clip-rule="evenodd" d="M37.3857 91.1909C35.1967 91.0373 33.2406 90.782 31.2366 90.6846C28.8496 92.9503 26.4517 95.3069 24.043 97.6981C25.8925 98.04 27.6332 98.4533 29.6046 98.7779C32.1766 96.2612 34.8464 93.6882 37.3857 91.1888V91.1909Z" fill="#1A1A1A"/>
<path fill-rule="evenodd" clip-rule="evenodd" d="M30.0871 90.4817C28.2028 90.2545 26.5491 90.0511 24.7909 89.8975C22.5084 92.1242 20.2128 94.2817 17.9629 96.5994C19.5078 96.9737 21.1702 97.2464 22.8957 97.6835C25.25 95.275 27.7045 92.8492 30.0893 90.4817H30.0871Z" fill="#1A1A1A"/>
<path fill-rule="evenodd" clip-rule="evenodd" d="M24.0519 89.8566C22.4635 89.5948 21.1057 89.2593 19.6957 88.9932C17.6329 91.0555 15.5049 93.1459 13.5879 95.0827C14.8325 95.4527 16.2512 95.8098 17.5611 96.2469C19.6979 94.111 21.9369 91.9427 24.0519 89.8566Z" fill="#1A1A1A"/>
<path fill-rule="evenodd" clip-rule="evenodd" d="M18.797 88.8113C17.561 88.5668 16.2163 88.4932 15.0979 88.1924C13.1439 90.1183 11.1769 92.027 9.37305 93.8664C10.3805 94.2061 11.3923 94.5762 12.576 94.8943C14.5474 92.964 16.6798 90.9645 18.7991 88.8113H18.797Z" fill="#1A1A1A"/>
<path fill-rule="evenodd" clip-rule="evenodd" d="M4.74443 89.9713C4.36364 89.6467 4.04378 89.1424 3.77179 88.7832C2.47277 90.1573 1.17375 91.367 0.0901402 92.5832C0.0705569 93.1805 0.279446 93.7085 0.542732 94.2192C1.96578 92.8104 3.27351 91.4644 4.74225 89.9713H4.74443Z" fill="#1A1A1A"/>
<path fill-rule="evenodd" clip-rule="evenodd" d="M30.0791 78.7526C33.1863 78.0947 36.2391 77.4347 39.7445 76.7422C40.5692 76.3224 41.346 76.1298 42.3382 75.7598C38.6174 76.6686 35.2317 77.3893 31.9591 78.1618C31.1932 78.679 30.6818 78.441 30.0791 78.7526Z" fill="#1A1A1A"/>
<path fill-rule="evenodd" clip-rule="evenodd" d="M51.2334 75.2843C55.6331 74.9034 60.085 74.9142 64.9308 74.6935C65.8403 74.6091 66.8674 74.5334 67.9292 74.2109C62.868 74.6935 58.2312 74.5853 53.7575 74.8536C52.7043 75.2453 51.9014 75.1047 51.2334 75.2864V75.2843Z" fill="#1A1A1A"/>
<path fill-rule="evenodd" clip-rule="evenodd" d="M139.426 84.4266C133.814 84.0696 128.246 83.8705 123.217 83.5459C119.187 87.5774 115.206 91.6782 111.319 95.8526C116.291 96.3525 121.59 96.835 126.866 97.4474C131.027 92.955 135.331 88.4971 139.423 84.4245L139.426 84.4266Z" fill="#1A1A1A"/>
<path fill-rule="evenodd" clip-rule="evenodd" d="M120.771 83.4056C115.749 83.3255 110.981 83.2238 106.505 83.0312C102.874 86.7577 98.8788 90.6594 95.3604 94.3793C99.5947 94.7948 104.195 95.1172 108.945 95.5046C112.792 91.4427 116.845 87.3376 120.771 83.4078V83.4056Z" fill="#1A1A1A"/>
<path fill-rule="evenodd" clip-rule="evenodd" d="M104.35 83.0135C99.9154 82.9053 95.7485 82.9118 91.6382 82.8145C88.148 86.1362 84.6665 89.67 81.2852 93.3099C85.1452 93.5198 89.138 93.7989 93.3006 94.2858C96.7646 90.5832 100.705 86.6642 104.352 83.0114L104.35 83.0135Z" fill="#1A1A1A"/>
<path fill-rule="evenodd" clip-rule="evenodd" d="M89.7227 82.6958C85.8082 82.6158 82.1592 82.685 78.6168 82.5703C75.268 85.7795 72.0107 88.9779 68.8447 92.1525C72.1804 92.2997 75.6706 92.7195 79.4088 93.1241C82.8163 89.6488 86.2956 86.0587 89.7227 82.6958Z" fill="#1A1A1A"/>
<path fill-rule="evenodd" clip-rule="evenodd" d="M76.9092 82.4898C73.3994 82.5569 70.3444 82.3924 67.1437 82.4227C63.9886 85.4675 60.9205 88.3975 57.9482 91.3795C60.901 91.6457 63.9821 91.8967 67.2459 92.1001C70.4097 88.8693 73.6279 85.8137 76.9092 82.4898Z" fill="#1A1A1A"/>
<path fill-rule="evenodd" clip-rule="evenodd" d="M65.6789 82.3141C62.5456 82.2795 59.706 82.2687 56.8708 82.167C53.9638 84.9715 51.1525 87.7436 48.3281 90.572C50.8609 91.061 53.6091 91.1844 56.4856 91.3835C59.5711 88.3214 62.4672 85.3632 65.6811 82.3141H65.6789Z" fill="#1A1A1A"/>
<path fill-rule="evenodd" clip-rule="evenodd" d="M55.548 82.2002C52.9021 82.2002 50.2126 82.3192 47.9192 82.2565C45.2646 84.7386 42.5447 87.396 39.8574 89.9408C42.1661 90.0772 44.5422 90.2698 47.051 90.5662C49.7644 87.7552 52.6953 85.0004 55.548 82.2002Z" fill="#1A1A1A"/>
<path fill-rule="evenodd" clip-rule="evenodd" d="M153.486 69.4736C147.583 69.5364 141.886 69.6208 136.564 69.7528C132.68 73.6437 128.807 77.3852 124.981 81.2436C130.217 81.4189 135.724 81.6808 141.253 81.9188C145.398 77.7336 149.556 73.49 153.486 69.4758V69.4736Z" fill="#1A1A1A"/>
<path fill-rule="evenodd" clip-rule="evenodd" d="M134.079 69.9277C128.883 69.945 123.855 70.1723 119.177 70.3259C115.499 73.8987 111.796 77.4714 108.229 81.0204C112.779 80.9749 117.656 81.0485 122.569 81.2758C126.324 77.3286 130.163 73.6303 134.079 69.9277Z" fill="#1A1A1A"/>
<path fill-rule="evenodd" clip-rule="evenodd" d="M116.811 70.3652C112.205 70.4561 107.744 70.6379 103.532 70.8262C100.174 74.0527 96.7557 77.3809 93.333 80.8801C97.3693 80.9082 101.601 80.9883 105.966 81.0554C109.524 77.4545 113.227 73.8147 116.809 70.3652H116.811Z" fill="#1A1A1A"/>
<path fill-rule="evenodd" clip-rule="evenodd" d="M101.597 70.8477C97.4064 71.0857 93.7879 71.1593 89.9648 71.3757C86.5703 74.5286 83.4892 77.5561 80.2275 80.7068C83.87 80.7242 87.5756 80.6852 91.5445 80.7631C94.7518 77.4132 98.1767 74.085 101.597 70.8477Z" fill="#1A1A1A"/>
<path fill-rule="evenodd" clip-rule="evenodd" d="M88.0035 71.54C84.5221 71.6071 81.1124 71.7045 77.7202 71.9036C74.5781 74.931 71.571 77.8048 68.6553 80.6332C71.695 80.7868 74.9654 80.8085 78.5252 80.7306C81.6738 77.5668 84.8245 74.6021 88.0035 71.54Z" fill="#1A1A1A"/>
<path fill-rule="evenodd" clip-rule="evenodd" d="M76.0541 71.9551C72.7358 72.1823 69.8179 72.3078 67.0175 72.4203C64.0517 75.1513 61.0185 77.9061 58.3008 80.5764C61.0729 80.6219 63.9712 80.7128 67.1502 80.6327C70.0681 77.8152 73.023 74.9479 76.0541 71.9551Z" fill="#1A1A1A"/>
<path fill-rule="evenodd" clip-rule="evenodd" d="M65.2725 72.75C62.322 72.9945 59.7109 73.1309 57.0497 73.2888C54.3363 75.8553 51.4989 78.5019 48.877 81.1507C51.3814 80.9581 54.0165 80.9234 56.7668 80.8109C59.4933 78.2487 62.2045 75.6887 65.2725 72.7522V72.75Z" fill="#1A1A1A"/>
<path fill-rule="evenodd" clip-rule="evenodd" d="M146.591 57.4482C141.188 57.7555 136.075 57.9654 131.131 58.3679C127.467 61.8606 123.929 65.2408 120.352 68.8807C125.23 68.5517 130.108 68.5171 135.396 68.3635C138.988 64.7171 142.74 61.0773 146.589 57.4482H146.591Z" fill="#1A1A1A"/>
<path fill-rule="evenodd" clip-rule="evenodd" d="M128.657 58.7158C123.817 58.9365 119.37 59.352 114.883 59.8238C111.473 62.9594 108.17 66.1557 104.789 69.4103C109.147 69.0468 113.39 69.0359 118.104 68.8888C121.655 65.4177 125.223 61.8861 128.657 58.7158Z" fill="#1A1A1A"/>
<path fill-rule="evenodd" clip-rule="evenodd" d="M112.811 59.999C108.551 60.328 104.602 60.7478 100.602 61.1806C97.3646 64.1106 94.2378 67.1619 90.9805 70.2218C94.8362 69.8301 98.6223 69.75 102.857 69.4384C106.031 66.372 109.406 63.2082 112.811 59.999Z" fill="#1A1A1A"/>
<path fill-rule="evenodd" clip-rule="evenodd" d="M98.6548 61.3213C94.8861 61.6567 91.3372 61.8601 87.8144 62.1955C84.7725 65.0347 81.8198 67.8414 78.8018 70.7195C82.1918 70.5443 85.5362 70.3949 89.2897 70.2261C92.497 67.2052 95.4693 64.2687 98.6548 61.3213Z" fill="#1A1A1A"/>
<path fill-rule="evenodd" clip-rule="evenodd" d="M86.0632 62.4082C82.882 62.6181 79.7139 62.9189 76.4544 63.3798C73.593 65.9918 70.7273 68.7141 67.9443 71.3196C70.9079 71.1767 73.9803 70.8824 77.1398 70.8024C80.2187 67.9221 83.1801 65.1911 86.0632 62.4082Z" fill="#1A1A1A"/>
<path fill-rule="evenodd" clip-rule="evenodd" d="M66.7171 65.4121C63.9189 65.7583 61.2382 66.0765 58.7772 66.2929C56.2488 68.6148 53.5506 71.0753 50.9482 73.5185C53.4223 73.2977 55.9703 73.2393 58.5117 73.0813C61.0946 70.5473 63.8863 67.9873 66.7171 65.4143V65.4121Z" fill="#1A1A1A"/>
<path fill-rule="evenodd" clip-rule="evenodd" d="M57.2671 66.4219C54.8693 66.6318 52.5824 66.7854 50.363 67.0646C48.0391 69.3022 45.6956 71.3926 43.4609 73.5782C45.4236 73.5501 47.6648 73.39 49.8037 73.3229C52.1929 71.0961 54.7844 68.6703 57.2671 66.4219Z" fill="#1A1A1A"/>
<path fill-rule="evenodd" clip-rule="evenodd" d="M140.746 47.543C135.885 48.1164 131.198 48.6683 126.474 49.2309C123.128 52.3427 119.862 55.3593 116.424 58.5231C121.059 57.9215 125.408 57.6597 130.367 57.1252C133.755 53.8489 137.276 50.763 140.746 47.543Z" fill="#1A1A1A"/>
<path fill-rule="evenodd" clip-rule="evenodd" d="M124.303 49.4582C119.975 49.93 115.627 50.5424 111.495 51.0596C108.429 53.9507 105.235 56.8699 102.034 59.8627C106.081 59.4148 109.989 59.101 114.356 58.7375C117.788 55.5239 121.065 52.5354 124.303 49.4561V49.4582Z" fill="#1A1A1A"/>
<path fill-rule="evenodd" clip-rule="evenodd" d="M109.517 51.292C105.674 51.7291 101.905 52.2463 98.041 52.8263C95.097 55.5875 92.2836 58.1151 89.209 60.9434C92.7274 60.608 96.3199 60.3245 100.099 60.0735C103.239 57.0634 106.486 54.0749 109.517 51.292Z" fill="#1A1A1A"/>
<path fill-rule="evenodd" clip-rule="evenodd" d="M96.3597 53.0879C92.9478 53.6094 89.5381 54.0595 86.3004 54.4967C83.4869 57.0761 80.5451 59.6643 77.749 62.2048C80.9607 61.8759 84.1223 61.5297 87.4558 61.1531C90.5391 58.3637 93.457 55.7236 96.3597 53.0879Z" fill="#1A1A1A"/>
<path fill-rule="evenodd" clip-rule="evenodd" d="M75.8642 56.7168C72.9289 57.1885 70.2112 57.5131 67.6588 57.8421C65.0216 60.2549 62.3605 62.631 59.8604 65.0612C62.3714 64.7993 64.9411 64.5397 67.7916 64.1761C70.444 61.7113 73.0856 59.292 75.8642 56.719V56.7168Z" fill="#1A1A1A"/>
<path fill-rule="evenodd" clip-rule="evenodd" d="M65.7655 58.5666C63.1675 58.9129 60.8523 59.2764 58.4914 59.7135C56.037 61.8992 53.6283 64.0632 51.0498 66.3916C53.2649 66.1017 55.6606 65.9199 58.0563 65.7208C60.5651 63.3231 63.1153 60.9492 65.7677 58.5645L65.7655 58.5666Z" fill="#1A1A1A"/>
<path fill-rule="evenodd" clip-rule="evenodd" d="M151.176 36.0461C146.051 36.8489 141.212 37.5652 136.56 38.3681C133.218 41.1467 130.047 44.0031 126.618 47.1323C131.307 46.416 136.042 45.9053 140.879 45.2799C144.328 42.0945 147.733 39.0714 151.173 36.0439L151.176 36.0461Z" fill="#1A1A1A"/>
<path fill-rule="evenodd" clip-rule="evenodd" d="M134.351 38.5996C129.771 39.3873 125.397 40.0019 121.106 40.7441C118.134 43.4989 115.02 46.1563 111.865 49.0431C116.028 48.4415 120.325 47.9135 124.671 47.2534C127.854 44.3623 131.035 41.5448 134.351 38.5996Z" fill="#1A1A1A"/>
<path fill-rule="evenodd" clip-rule="evenodd" d="M146.215 28.3613C141.556 29.1815 137.091 30.0817 132.726 30.8954C129.586 33.6718 126.516 36.3357 123.441 39.0082C127.56 38.3027 132.032 37.6211 136.723 36.8247C139.822 34.07 143.055 31.2221 146.217 28.3613H146.215Z" fill="#1A1A1A"/>
<path fill-rule="evenodd" clip-rule="evenodd" d="M196.887 31.2764C190.185 32.2004 183.945 33.0595 178.009 33.6762C174.06 37.0759 170.443 40.5643 166.944 43.8362C172.706 43.3536 178.842 42.6612 185.348 41.9622C189.049 38.4327 192.899 34.8556 196.885 31.2785L196.887 31.2764Z" fill="#1A1A1A"/>
<path fill-rule="evenodd" clip-rule="evenodd" d="M16.0331 97.2393C14.61 96.8476 13.3066 96.4321 12.062 96.0967C10.1298 98.0053 8.13231 99.9529 6.23926 102.095C7.20101 102.595 8.33467 103.197 9.53142 103.742C11.5985 101.658 13.8223 99.3795 16.0331 97.2393Z" fill="#1A1A1A"/>
<path fill-rule="evenodd" clip-rule="evenodd" d="M21.364 98.586C19.695 98.1943 18.148 97.768 16.6618 97.3828C14.3923 99.6767 12.2251 101.882 10.1602 103.977C11.3613 104.634 12.6842 105.249 14.129 105.879C16.479 103.442 18.9291 100.949 21.364 98.586Z" fill="#1A1A1A"/>
<path fill-rule="evenodd" clip-rule="evenodd" d="M27.5586 99.9899C25.6438 99.6502 23.903 99.1784 22.2254 98.7002C19.6796 101.273 17.2295 103.71 14.9404 106.09C16.5071 106.597 18.0825 107.192 19.9516 107.663C22.4648 105.097 25.078 102.517 27.5608 99.9899H27.5586Z" fill="#1A1A1A"/>
<path fill-rule="evenodd" clip-rule="evenodd" d="M35.4684 101.568C33.2294 101.085 31.0557 100.574 28.8972 100.232C26.3579 102.749 23.6967 105.571 21.127 108.235C23.07 108.763 24.9653 109.535 26.9258 110.302C29.7153 107.302 32.6615 104.452 35.4684 101.565V101.568Z" fill="#1A1A1A"/>
<path fill-rule="evenodd" clip-rule="evenodd" d="M44.0613 102.987C41.4437 102.596 38.8391 102.204 36.6458 101.704C33.7823 104.543 30.8383 107.43 27.9922 110.406C30.2051 111.126 32.5399 111.752 34.9508 112.433C37.836 109.343 40.8736 106.22 44.0613 102.987Z" fill="#1A1A1A"/>
<path fill-rule="evenodd" clip-rule="evenodd" d="M53.8618 104.857C50.8481 104.391 48.0804 103.868 45.4388 103.312C42.1401 106.657 39.0503 109.871 36.165 112.915C38.589 113.608 41.2132 114.471 43.907 115.283C47.2905 111.71 50.4195 108.427 53.8618 104.854V104.857Z" fill="#1A1A1A"/>
<path fill-rule="evenodd" clip-rule="evenodd" d="M64.9265 107.179C61.4994 106.594 58.316 105.934 55.211 105.305C51.8905 108.832 48.5875 112.227 45.2627 115.737C48.1088 116.664 51.1486 117.566 54.2623 118.475C57.7829 114.64 61.4494 110.797 64.9265 107.179Z" fill="#1A1A1A"/>
<path fill-rule="evenodd" clip-rule="evenodd" d="M78.9234 109.207C74.9893 108.423 71.2228 107.837 67.7196 107.326C64.125 110.905 60.4781 114.822 56.9053 118.646C60.2192 119.436 63.7964 120.286 67.3649 121.464C71.2946 117.153 75.035 113.149 78.9256 109.207H78.9234Z" fill="#1A1A1A"/>
<path fill-rule="evenodd" clip-rule="evenodd" d="M93.3178 111.752C88.8854 110.888 84.5205 109.912 80.6909 109.157C76.7655 113.275 72.7923 117.335 69.041 121.544C72.8206 122.697 76.8199 123.957 81.1848 124.987C85.1842 120.544 89.2161 116.234 93.3178 111.754V111.752Z" fill="#1A1A1A"/>
<path fill-rule="evenodd" clip-rule="evenodd" d="M110.427 114.803C105.294 113.912 100.202 113.139 95.8044 111.873C91.6636 116.435 87.4314 121.035 83.5039 125.515C87.8688 126.777 92.4535 128.06 97.3079 129.28C101.747 124.305 105.996 119.596 110.429 114.803H110.427Z" fill="#1A1A1A"/>
<path fill-rule="evenodd" clip-rule="evenodd" d="M129.812 118.898C123.78 117.653 118.234 116.541 113.02 115.359C108.544 120.272 104.023 125.18 99.6055 130.297C105.045 131.801 110.063 133.678 115.82 135.147C120.577 129.683 125.279 124.243 129.812 118.898Z" fill="#1A1A1A"/>
<path fill-rule="evenodd" clip-rule="evenodd" d="M152.218 124.019C145.164 122.639 138.912 121.334 132.609 119.964C127.904 125.359 123.211 130.851 118.511 136.22C124.397 138.163 130.631 140.065 137.171 142.013C142.346 135.713 147.263 129.791 152.218 124.019Z" fill="#1A1A1A"/>
<path fill-rule="evenodd" clip-rule="evenodd" d="M385.424 92.8335C380.983 89.2889 376.635 85.7118 372.662 82.4463C366.243 86.0753 359.852 89.4555 353.398 93.2879C357 97.0425 360.566 100.979 364.876 105.006C371.835 100.899 378.789 96.8152 385.421 92.8335H385.424Z" fill="#1A1A1A"/>
<path fill-rule="evenodd" clip-rule="evenodd" d="M167.579 85.5581C165.813 83.7814 164.087 82.1281 162.292 80.7129C159.792 82.4614 157.187 84.3246 154.615 86.0969C156.212 87.7784 157.72 89.5853 159.341 91.6173C162.109 89.5507 164.87 87.4992 167.582 85.5581H167.579Z" fill="#1A1A1A"/>
<path fill-rule="evenodd" clip-rule="evenodd" d="M97.6584 19.9223C96.9708 18.8749 96.3398 17.7842 95.7589 16.6914C93.509 18.5503 91.1067 20.5628 88.748 22.5234C89.1158 23.7807 89.6358 24.9298 90.2233 26.1611C92.6908 24.0901 95.1996 21.9846 97.6563 19.9223H97.6584Z" fill="#1A1A1A"/>
<path fill-rule="evenodd" clip-rule="evenodd" d="M462.912 201.62C457.362 197.281 452.126 193.124 447.041 189.465C440.42 191.499 433.923 193.908 427.105 196.206C432.049 200.205 436.915 204.526 441.915 209.183C449.026 206.513 456.3 204.106 462.915 201.618L462.912 201.62Z" fill="#1A1A1A"/>
<path fill-rule="evenodd" clip-rule="evenodd" d="M113.504 33.9963C112.958 33.3969 112.527 32.8126 112.098 32.25C110.636 33.3104 109.165 34.3512 107.744 35.39C108.073 36.0327 108.412 36.7879 108.793 37.4198C110.366 36.2837 111.881 35.1563 113.504 33.9942V33.9963Z" fill="#1A1A1A"/>
<path fill-rule="evenodd" clip-rule="evenodd" d="M163.889 6.57221C162.571 6.01173 161.322 5.51617 160.086 5.05957C158.221 6.32551 156.358 7.63473 154.452 9.01536C155.492 9.64076 156.635 10.1969 157.934 10.9154C159.875 9.40272 161.883 7.98963 163.889 6.57437V6.57221Z" fill="#1A1A1A"/>
<path fill-rule="evenodd" clip-rule="evenodd" d="M444.334 57.9262C439.108 55.7795 434.249 53.9055 429.632 52.1396C423.661 54.6109 418.008 56.9784 412.599 59.4886C416.77 61.5682 421.163 63.6976 426.078 66.316C432.389 63.3795 438.52 60.4667 444.334 57.9262Z" fill="#1A1A1A"/>
<path fill-rule="evenodd" clip-rule="evenodd" d="M142.515 3.22686C141.719 2.85248 141.122 2.36126 140.491 1.99121C138.973 2.98232 137.526 4.10111 136.063 5.18095C136.599 5.65486 137.093 6.21534 137.739 6.64814C139.195 5.53801 140.853 4.36296 142.515 3.22686Z" fill="#1A1A1A"/>
<path fill-rule="evenodd" clip-rule="evenodd" d="M29.0646 78.3782C28.8861 77.9238 28.6511 77.4694 28.5293 77.0322C27.6546 77.6295 26.8386 78.3112 25.9639 78.9344C26.0313 79.4624 26.1532 79.9623 26.275 80.4622C27.2607 79.7632 28.1376 79.0707 29.0646 78.3782Z" fill="#1A1A1A"/>
<path fill-rule="evenodd" clip-rule="evenodd" d="M466.927 128.371C463.206 126.594 460.195 124.917 457.018 123.312C452.353 124.629 447.886 125.822 443.434 127.112C446.164 128.758 449.256 130.678 452.529 132.496C457.405 131.171 462.181 129.73 466.927 128.371Z" fill="#1A1A1A"/>
<path fill-rule="evenodd" clip-rule="evenodd" d="M193.111 -2.02336C191.806 -2.40855 190.472 -2.67256 189.343 -3.06641C187.526 -1.8827 185.607 -0.653546 183.888 0.486882C184.982 0.96729 186.007 1.37629 187.217 1.8264C189.025 0.586426 191.14 -0.78122 193.111 -2.02336Z" fill="#1A1A1A"/>
<path fill-rule="evenodd" clip-rule="evenodd" d="M124.362 4.56226C123.609 4.32422 122.867 4.15543 122.173 3.94336C121.004 4.78299 119.681 5.70485 118.454 6.53583C119.153 6.78253 119.797 7.01191 120.499 7.26294C121.822 6.3454 123.043 5.48196 124.364 4.56226H124.362Z" fill="#1A1A1A"/>
<path fill-rule="evenodd" clip-rule="evenodd" d="M106.621 23.8692C105.868 23.6225 105.163 23.339 104.471 23.1572C103.37 23.9038 102.16 24.7045 100.998 25.4489C101.697 25.6956 102.395 25.9553 103.046 26.2496C104.201 25.4641 105.413 24.6742 106.621 23.8692Z" fill="#1A1A1A"/>
<path fill-rule="evenodd" clip-rule="evenodd" d="M223.751 34.1964C222.117 33.7701 220.55 33.3351 219.044 32.9326C217.062 33.9995 215.132 35.0144 213.041 36.131C214.588 36.4837 216.107 36.9663 217.624 37.4143C219.595 36.3149 221.753 35.2243 223.751 34.1964Z" fill="#1A1A1A"/>
<path fill-rule="evenodd" clip-rule="evenodd" d="M88.3908 40.7678C87.6923 40.5233 86.9873 40.2009 86.3454 39.9434C85.264 40.664 84.2892 41.324 83.2578 42.0273C83.8453 42.3 84.4372 42.6072 85.0856 42.9362C86.1692 42.1874 87.2572 41.5339 88.3908 40.7657V40.7678Z" fill="#1A1A1A"/>
<path fill-rule="evenodd" clip-rule="evenodd" d="M97.2555 12.1231C96.6441 11.9651 96.0457 11.9045 95.4386 11.792C94.5487 12.3979 93.6152 13.0752 92.7188 13.6444C93.2192 13.7526 93.8285 13.9084 94.3376 14.0815C95.3255 13.3998 96.2633 12.742 97.2555 12.1253V12.1231Z" fill="#1A1A1A"/>
<path fill-rule="evenodd" clip-rule="evenodd" d="M546 168.243C541.035 166.749 535.784 164.977 530.477 163.438C525.562 164.49 520.252 165.239 515.261 166.159C520.033 167.617 525.2 169.327 529.974 171.021C535.551 170.084 540.71 169.221 546 168.245V168.243Z" fill="#1A1A1A"/>
<path fill-rule="evenodd" clip-rule="evenodd" d="M5.72187 98.3889C5.38678 98.1401 5.05169 97.8826 4.83192 97.6445C4.20743 98.0427 3.52419 98.4971 2.9541 98.8607C3.17387 99.1269 3.45021 99.3541 3.72655 99.6397C4.40979 99.1788 5.03863 98.7936 5.72187 98.3911V98.3889Z" fill="#1A1A1A"/>
<path fill-rule="evenodd" clip-rule="evenodd" d="M300.767 71.8645C298.295 71.2629 295.647 70.9037 293.125 70.3584C290.641 71.2218 288.38 71.9771 286.158 72.8643C288.447 73.2841 290.926 73.8749 293.513 74.4657C295.93 73.5741 298.413 72.7172 300.765 71.8645H300.767Z" fill="#1A1A1A"/>
<path fill-rule="evenodd" clip-rule="evenodd" d="M292.329 116.699C290.099 115.307 287.893 113.922 285.673 112.717C282.566 113.909 279.398 115.311 276.208 116.664C278.273 118.038 280.325 119.378 282.398 120.94C285.856 119.373 289.131 118.06 292.329 116.696V116.699Z" fill="#1A1A1A"/>
<path fill-rule="evenodd" clip-rule="evenodd" d="M238.325 61.3351C236.315 60.1882 234.461 59.1646 232.74 58.167C230.094 59.632 227.337 61.1879 224.582 62.772C226.314 63.8345 227.861 65.1113 229.791 66.2084C232.72 64.5659 235.516 62.9321 238.325 61.3351Z" fill="#1A1A1A"/>
</g>
</g>
<path d="M0 0V1H1920V0V-1H0V0ZM1920 263V262H0V263V264H1920V263Z" fill="#262626" mask="url(#path-1-inside-1_12_414)"/>
<defs>
<clipPath id="clip0_12_414">
<path d="M0 0H1920V263H0V0Z" fill="white"/>
</clipPath>
<clipPath id="clip1_12_414">
<rect width="725" height="394" fill="white" transform="matrix(-1 0 0 1 2012 -68)"/>
</clipPath>
<clipPath id="clip2_12_414">
<rect width="566" height="308" fill="white" transform="translate(-20 -45)"/>
</clipPath>
</defs>
</svg>
