<svg width="20" height="20" viewBox="0 0 20 20" fill="none" xmlns="http://www.w3.org/2000/svg">
<path d="M14.1667 5.83333H15.0001V6.66667C15.0001 6.88768 15.0879 7.09964 15.2442 7.25592C15.4004 7.4122 15.6124 7.5 15.8334 7.5C16.0544 7.5 16.2664 7.4122 16.4227 7.25592C16.5789 7.09964 16.6667 6.88768 16.6667 6.66667V5.83333H17.5001C17.7211 5.83333 17.9331 5.74554 18.0893 5.58926C18.2456 5.43298 18.3334 5.22101 18.3334 5C18.3334 4.77899 18.2456 4.56702 18.0893 4.41074C17.9331 4.25446 17.7211 4.16667 17.5001 4.16667H16.6667V3.33333C16.6667 3.11232 16.5789 2.90036 16.4227 2.74408C16.2664 2.5878 16.0544 2.5 15.8334 2.5C15.6124 2.5 15.4004 2.5878 15.2442 2.74408C15.0879 2.90036 15.0001 3.11232 15.0001 3.33333V4.16667H14.1667C13.9457 4.16667 13.7338 4.25446 13.5775 4.41074C13.4212 4.56702 13.3334 4.77899 13.3334 5C13.3334 5.22101 13.4212 5.43298 13.5775 5.58926C13.7338 5.74554 13.9457 5.83333 14.1667 5.83333ZM17.5001 9.16667C17.2791 9.16667 17.0671 9.25446 16.9108 9.41074C16.7545 9.56702 16.6667 9.77899 16.6667 10V15C16.6667 15.221 16.5789 15.433 16.4227 15.5893C16.2664 15.7455 16.0544 15.8333 15.8334 15.8333H4.16675C3.94573 15.8333 3.73377 15.7455 3.57749 15.5893C3.42121 15.433 3.33341 15.221 3.33341 15V7.00833L8.23341 11.9167C8.70216 12.3848 9.33758 12.6478 10.0001 12.6478C10.6626 12.6478 11.298 12.3848 11.7667 11.9167L13.8251 9.85833C13.982 9.70141 14.0702 9.48858 14.0702 9.26667C14.0702 9.04475 13.982 8.83192 13.8251 8.675C13.6682 8.51808 13.4553 8.42992 13.2334 8.42992C13.0115 8.42992 12.7987 8.51808 12.6417 8.675L10.5834 10.7333C10.4276 10.886 10.2182 10.9715 10.0001 10.9715C9.78195 10.9715 9.57252 10.886 9.41675 10.7333L4.50841 5.83333H10.8334C11.0544 5.83333 11.2664 5.74554 11.4227 5.58926C11.5789 5.43298 11.6667 5.22101 11.6667 5C11.6667 4.77899 11.5789 4.56702 11.4227 4.41074C11.2664 4.25446 11.0544 4.16667 10.8334 4.16667H4.16675C3.50371 4.16667 2.86782 4.43006 2.39898 4.8989C1.93014 5.36774 1.66675 6.00363 1.66675 6.66667V15C1.66675 15.663 1.93014 16.2989 2.39898 16.7678C2.86782 17.2366 3.50371 17.5 4.16675 17.5H15.8334C16.4965 17.5 17.1323 17.2366 17.6012 16.7678C18.07 16.2989 18.3334 15.663 18.3334 15V10C18.3334 9.77899 18.2456 9.56702 18.0893 9.41074C17.9331 9.25446 17.7211 9.16667 17.5001 9.16667Z" fill="#999999"/>
</svg>
