<svg width="129" height="129" viewBox="0 0 129 129" fill="none" xmlns="http://www.w3.org/2000/svg">
<rect x="0.586364" y="0.586364" width="127.827" height="127.827" rx="63.9136" fill="#141414"/>
<rect x="0.586364" y="0.586364" width="127.827" height="127.827" rx="63.9136" stroke="#262626" stroke-width="1.17273"/>
<rect x="35.7685" y="35.7682" width="57.4636" height="57.4636" rx="28.7318" fill="#1A1A1A" stroke="#262626" stroke-width="1.17273"/>
<path d="M57.4995 71.5001L72.4995 56.5001M72.4995 56.5001L61.2495 56.5001M72.4995 56.5001V67.7501" stroke="white" stroke-width="1.5" stroke-linecap="round" stroke-linejoin="round"/>
<path d="M75.781 103.981L64.8253 105.516L66.3604 116.472L77.3161 114.937L75.781 103.981Z" fill="white"/>
<path d="M61.5429 107.649L60.3804 115.305L57.8484 114.921C57.3198 114.84 56.8392 114.665 56.4066 114.394C55.9735 114.127 55.6088 113.79 55.3125 113.383C55.0156 112.98 54.8039 112.532 54.6773 112.039C54.5466 111.549 54.5213 111.04 54.6016 110.511C54.6818 109.983 54.8574 109.502 55.1282 109.069C55.3948 108.64 55.73 108.275 56.1337 107.974C56.5368 107.678 56.9851 107.464 57.4786 107.334C57.9715 107.207 58.4822 107.184 59.0109 107.264L61.5429 107.649ZM60.2327 108.614L58.8382 108.402C58.4663 108.345 58.1094 108.362 57.7676 108.452C57.4221 108.541 57.1065 108.691 56.821 108.901C56.5318 109.111 56.2933 109.368 56.1055 109.671C55.9177 109.974 55.7955 110.312 55.7391 110.684C55.6826 111.056 55.699 111.415 55.7883 111.76C55.8775 112.106 56.0291 112.421 56.2431 112.707C56.4533 112.993 56.7102 113.23 57.0136 113.418C57.3134 113.605 57.6493 113.727 58.0211 113.783L59.4156 113.995L60.2327 108.614Z" fill="white"/>
<path d="M48.9924 110.556L47.9083 110.171L49.7613 104.959L50.8453 105.344L48.9924 110.556ZM48.1712 111.116C48.338 111.175 48.4579 111.278 48.5307 111.425C48.6036 111.573 48.6111 111.728 48.553 111.891C48.4962 112.051 48.393 112.165 48.2435 112.233C48.0928 112.305 47.9358 112.312 47.7725 112.254C47.6127 112.197 47.4969 112.093 47.4253 111.942C47.3524 111.795 47.3444 111.642 47.4012 111.482C47.4592 111.318 47.563 111.203 47.7125 111.134C47.8585 111.065 48.0114 111.059 48.1712 111.116Z" fill="white"/>
<path d="M44.3897 102.411C44.6369 102.566 44.8584 102.753 45.054 102.973C45.2496 103.192 45.3993 103.427 45.5032 103.676C45.602 103.927 45.6414 104.179 45.6214 104.432L44.5603 104.335C44.5657 104.224 44.5394 104.099 44.4814 103.958C44.4201 103.816 44.3332 103.679 44.2205 103.546C44.106 103.417 43.971 103.31 43.8154 103.226C43.663 103.143 43.5106 103.088 43.3581 103.06C43.2006 103.033 43.0551 103.042 42.9216 103.087C42.7881 103.132 42.687 103.218 42.6184 103.344C42.541 103.487 42.5299 103.623 42.5849 103.754C42.6349 103.886 42.7198 104.012 42.8396 104.131C42.9593 104.251 43.0799 104.369 43.2014 104.485C43.4804 104.729 43.7193 104.984 43.9183 105.251C44.1122 105.52 44.2342 105.794 44.2843 106.073C44.3326 106.355 44.2793 106.639 44.1246 106.924C43.9558 107.235 43.7255 107.459 43.4339 107.594C43.1405 107.733 42.8242 107.79 42.4851 107.765C42.1428 107.739 41.816 107.641 41.5049 107.472C41.1159 107.261 40.8043 106.985 40.5698 106.644C40.3354 106.303 40.2106 105.941 40.1953 105.56L41.256 105.519C41.2519 105.642 41.2773 105.769 41.3324 105.9C41.3874 106.03 41.4642 106.152 41.5627 106.264C41.6595 106.379 41.7726 106.476 41.9019 106.555C42.0637 106.651 42.2282 106.715 42.3955 106.747C42.5577 106.781 42.7065 106.773 42.8417 106.725C42.977 106.677 43.0842 106.58 43.1633 106.434C43.2407 106.291 43.2485 106.157 43.1867 106.031C43.1232 105.909 43.0267 105.785 42.8972 105.66C42.7645 105.534 42.6312 105.401 42.4973 105.261C42.258 105.013 42.0481 104.755 41.8674 104.485C41.6849 104.218 41.5678 103.947 41.516 103.671C41.4641 103.395 41.5162 103.122 41.6722 102.85C41.8375 102.545 42.075 102.328 42.3846 102.198C42.691 102.066 43.0225 102.019 43.3793 102.058C43.7361 102.096 44.0729 102.214 44.3897 102.411Z" fill="white"/>
<path d="M35.2691 98.1112L34.8368 97.0232C35.2537 96.9148 35.6782 96.9039 36.1102 96.9904C36.5393 97.0746 36.9267 97.2608 37.2722 97.549C37.663 97.8749 37.9359 98.273 38.0911 98.7433C38.2434 99.2113 38.2753 99.6941 38.1869 100.192C38.0932 100.69 37.8751 101.144 37.5326 101.555C37.2728 101.866 36.9755 102.11 36.6407 102.287C36.3035 102.467 35.9536 102.579 35.591 102.622C35.2232 102.666 34.862 102.638 34.5074 102.539C34.1529 102.441 33.8298 102.27 33.5381 102.026C33.1926 101.738 32.9399 101.391 32.78 100.983C32.6173 100.574 32.553 100.153 32.5871 99.7207L33.7351 99.9506C33.7359 100.191 33.7849 100.415 33.8821 100.621C33.9769 100.829 34.1079 101.003 34.275 101.143C34.5072 101.336 34.7713 101.449 35.0674 101.479C35.3582 101.511 35.645 101.469 35.9279 101.354C36.2056 101.24 36.4459 101.061 36.6491 100.818C36.8498 100.577 36.9812 100.307 37.0432 100.009C37.1028 99.7125 37.0911 99.4242 37.0081 99.1438C36.9223 98.8609 36.7647 98.6238 36.5353 98.4325C36.3597 98.2861 36.1595 98.1864 35.9348 98.1334C35.7101 98.0805 35.4882 98.073 35.2691 98.1112Z" fill="white"/>
<path d="M30.9757 91.0445C31.2863 91.4476 31.4661 91.8956 31.5153 92.3884C31.5622 92.8783 31.4884 93.3564 31.2938 93.8229C31.0941 94.2887 30.7825 94.6847 30.3589 95.0111C30.0376 95.2587 29.6943 95.4324 29.329 95.5323C28.9608 95.6344 28.595 95.6672 28.2316 95.6306C27.8631 95.5933 27.5166 95.4879 27.192 95.3144C26.8674 95.1408 26.5892 94.9036 26.3574 94.6028C26.0468 94.1996 25.8681 93.7532 25.8211 93.2633C25.772 92.7705 25.8472 92.2912 26.047 91.8254C26.2445 91.3567 26.5565 90.958 26.9829 90.6294C27.3013 90.3841 27.6432 90.2115 28.0085 90.1116C28.3737 90.0117 28.7406 89.9804 29.1092 90.0177C29.4725 90.0543 29.8165 90.1593 30.1411 90.3329C30.4634 90.5035 30.7416 90.7407 30.9757 91.0445ZM30.0643 91.7467C29.8775 91.5042 29.6455 91.3361 29.3685 91.2424C29.0914 91.1486 28.8049 91.1272 28.5091 91.1783C28.2081 91.2287 27.9334 91.3495 27.6851 91.5408C27.431 91.7366 27.2423 91.9751 27.1191 92.2562C26.9936 92.5344 26.9424 92.8183 26.9653 93.1079C26.9853 93.3997 27.0865 93.664 27.2688 93.9006C27.4533 94.1401 27.6853 94.3082 27.9646 94.4049C28.2417 94.4987 28.5307 94.5203 28.8317 94.47C29.1305 94.4167 29.4055 94.2933 29.6567 94.0997C29.9167 93.8994 30.1068 93.6598 30.2271 93.3809C30.3474 93.102 30.3961 92.8178 30.3731 92.5282C30.345 92.238 30.2421 91.9775 30.0643 91.7467Z" fill="white"/>
<path d="M25.4867 82.2041L26.1121 83.542L21.9462 87.7181L21.4261 86.6057L24.5979 83.4377L20.1308 83.8346L19.6131 82.7272L25.4867 82.2041Z" fill="white"/>
<path d="M22.985 74.2421C23.0951 74.739 23.0679 75.2209 22.9032 75.688C22.7377 76.1515 22.4679 76.5531 22.0938 76.8928C21.7152 77.2298 21.2649 77.4561 20.7428 77.5718C20.3468 77.6596 19.9622 77.6712 19.5891 77.6066C19.2124 77.5427 18.8673 77.4172 18.5538 77.2298C18.2359 77.0396 17.9669 76.7971 17.7467 76.5022C17.5264 76.2073 17.3752 75.8744 17.2931 75.5036C17.2013 75.0895 17.2035 74.6906 17.2997 74.3067C17.3924 73.9235 17.5628 73.576 17.8109 73.2642C18.0555 72.9532 18.3612 72.6966 18.7281 72.4944C19.0914 72.293 19.4978 72.1671 19.9474 72.1165L20.8702 76.2802C21.1082 76.1783 21.3133 76.0385 21.4854 75.8606C21.6531 75.6799 21.7714 75.4724 21.8403 75.238C21.9085 75.0001 21.9156 74.7511 21.8618 74.4911C21.8011 74.2175 21.6777 73.9842 21.4914 73.7913C21.3043 73.5948 21.0742 73.4513 20.8011 73.3607L20.8132 72.1626C21.3399 72.2725 21.8045 72.5114 22.2071 72.8792C22.606 73.2478 22.8653 73.7021 22.985 74.2421ZM20.0199 76.5083L19.3401 73.4409C19.0889 73.5343 18.8752 73.678 18.6991 73.8719C18.5186 74.063 18.3915 74.2819 18.3178 74.5286C18.2396 74.7726 18.2293 75.0241 18.2867 75.2834C18.3434 75.539 18.4572 75.763 18.6283 75.9555C18.7986 76.1444 19.0059 76.2873 19.2502 76.3842C19.4902 76.4784 19.7467 76.5197 20.0199 76.5083Z" fill="white"/>
<path d="M21.8066 67.0599L16.2764 67.1712L16.2533 66.0209L16.8395 66.0091C16.607 65.822 16.4216 65.5897 16.2833 65.3121C16.1449 65.0346 16.0725 64.7336 16.0659 64.4092C16.0618 64.2027 16.0853 63.9975 16.1365 63.7936L17.3071 64.2293C17.2547 64.3742 17.2299 64.5185 17.2328 64.6623C17.2377 64.9057 17.3031 65.1275 17.4288 65.3278C17.5509 65.5282 17.7145 65.6872 17.9197 65.8048C18.1249 65.9224 18.3511 65.9787 18.5981 65.9737L21.7835 65.9096L21.8066 67.0599Z" fill="white"/>
<path d="M17.2499 46.8343L17.6844 45.5506L20.8606 49.417L24.172 50.5377L23.8031 51.6275L20.4918 50.5068L15.6221 51.6441L16.0565 50.3604L19.4869 49.5593L17.2499 46.8343Z" fill="white"/>
<path d="M28.2892 42.2354C28.0191 42.6666 27.6614 42.9909 27.2164 43.2081C26.7733 43.4222 26.2992 43.519 25.7942 43.4986C25.2881 43.473 24.8084 43.3183 24.3553 43.0344C24.0116 42.819 23.7294 42.5574 23.5089 42.2495C23.2853 41.9397 23.1275 41.6081 23.0357 41.2546C22.9426 40.8961 22.9211 40.5345 22.9712 40.1699C23.0212 39.8052 23.1471 39.462 23.3487 39.1401C23.6189 38.7089 23.9755 38.3862 24.4186 38.1721C24.8637 37.9548 25.3393 37.859 25.8455 37.8846C26.3536 37.907 26.8358 38.0611 27.292 38.347C27.6326 38.5604 27.9132 38.821 28.1337 39.1289C28.3542 39.4367 28.511 39.7699 28.604 40.1285C28.6959 40.4819 28.7168 40.841 28.6668 41.2056C28.6187 41.5671 28.4929 41.9104 28.2892 42.2354ZM27.3143 41.6246C27.4768 41.3652 27.5539 41.0893 27.5456 40.7969C27.5373 40.5045 27.4579 40.2285 27.3073 39.9688C27.1555 39.704 26.9468 39.4884 26.6812 39.322C26.4093 39.1516 26.1202 39.0575 25.8137 39.0396C25.5093 39.0185 25.2252 39.069 24.9616 39.1911C24.6949 39.3112 24.4823 39.4978 24.3237 39.7509C24.1632 40.0072 24.086 40.2831 24.0924 40.5786C24.1006 40.871 24.1807 41.1496 24.3324 41.4143C24.4862 41.676 24.6974 41.891 24.9661 42.0594C25.2443 42.2336 25.535 42.3288 25.8383 42.3447C26.1416 42.3607 26.425 42.3076 26.6886 42.1856C26.951 42.0584 27.1596 41.8714 27.3143 41.6246Z" fill="white"/>
<path d="M30.8176 34.9702L28.3572 32.5416L29.1654 31.7228L31.425 33.9532C31.6009 34.1267 31.8037 34.2414 32.0335 34.2973C32.2634 34.3532 32.4928 34.3517 32.7219 34.2928C32.9484 34.2314 33.1471 34.114 33.3181 33.9408C33.4916 33.765 33.6063 33.5647 33.6622 33.3401C33.7181 33.1103 33.7153 32.8822 33.6539 32.6557C33.595 32.4266 33.4777 32.2253 33.3018 32.0517L31.0422 29.8214L31.8504 29.0025L35.791 32.8843L34.9827 33.7031L34.5537 33.2874C34.5843 33.5818 34.5484 33.8754 34.446 34.1681C34.3436 34.4609 34.1797 34.7214 33.9544 34.9497C33.6668 35.241 33.3343 35.4362 32.9569 35.5351C32.5794 35.634 32.2013 35.6365 31.8226 35.5425C31.4439 35.4485 31.1089 35.2577 30.8176 34.9702Z" fill="white"/>
<path d="M39.1934 30.147L36.0656 25.5849L37.0145 24.9343L37.346 25.4179C37.3749 25.1209 37.4674 24.8384 37.6234 24.5705C37.7795 24.3025 37.9914 24.0768 38.259 23.8933C38.4293 23.7765 38.6138 23.6836 38.8123 23.6145L39.0905 24.8322C38.9406 24.8679 38.8064 24.9264 38.6878 25.0077C38.487 25.1453 38.3374 25.3217 38.239 25.5367C38.1384 25.7487 38.0953 25.9728 38.1096 26.2089C38.124 26.445 38.201 26.6649 38.3407 26.8687L40.1423 29.4964L39.1934 30.147Z" fill="white"/>
<path d="M50.9483 23.9077L49.0514 16.3997L51.5344 15.7724C52.0528 15.6414 52.5639 15.6169 53.0676 15.6988C53.5705 15.7771 54.0373 15.9463 54.4681 16.2064C54.8981 16.4629 55.2669 16.7938 55.5747 17.1991C55.8852 17.5999 56.1059 18.0595 56.2369 18.5779C56.3678 19.0963 56.3924 19.6074 56.3105 20.1111C56.2312 20.6104 56.0638 21.0768 55.8082 21.5103C55.5517 21.9402 55.2212 22.3109 54.8169 22.6222C54.4116 22.93 53.9497 23.1494 53.4313 23.2804L50.9483 23.9077ZM51.782 22.5104L53.1495 22.1649C53.5142 22.0728 53.8367 21.919 54.117 21.7037C54.4008 21.4874 54.6336 21.227 54.8153 20.9225C55.0006 20.617 55.1209 20.288 55.1764 19.9355C55.2319 19.583 55.2135 19.2244 55.1214 18.8597C55.0293 18.4951 54.8751 18.1708 54.6588 17.8869C54.4426 17.603 54.1804 17.3707 53.8723 17.1899C53.5677 17.0082 53.2392 16.8897 52.8867 16.8342C52.5377 16.7778 52.1809 16.7957 51.8162 16.8878L50.4487 17.2333L51.782 22.5104Z" fill="white"/>
<path d="M61.6897 21.8633L61.4942 16.3354L62.644 16.2947L62.6647 16.8807C62.8482 16.6454 63.0777 16.4565 63.3531 16.3139C63.6285 16.1713 63.9283 16.0943 64.2526 16.0828C64.459 16.0755 64.6645 16.0959 64.8692 16.144L64.4514 17.3211C64.3057 17.2709 64.161 17.2484 64.0173 17.2535C63.7741 17.2621 63.5533 17.3308 63.3549 17.4595C63.1564 17.5846 62.9999 17.7507 62.8854 17.9577C62.771 18.1647 62.7181 18.3916 62.7269 18.6385L62.8395 21.8226L61.6897 21.8633Z" fill="white"/>
<path d="M71.3398 22.4465C70.8377 22.3641 70.4004 22.1597 70.0279 21.8333C69.6591 21.5074 69.3865 21.1077 69.2101 20.6341C69.038 20.1574 68.9952 19.6553 69.0817 19.1276C69.1474 18.7273 69.2796 18.366 69.4782 18.0436C69.6774 17.7175 69.9223 17.4438 70.2127 17.2224C70.5074 16.9979 70.8325 16.8383 71.1881 16.7434C71.5438 16.6486 71.909 16.6319 72.2838 16.6934C72.7023 16.762 73.0718 16.9124 73.3925 17.1443C73.7138 17.3727 73.9731 17.66 74.1704 18.0063C74.3683 18.3489 74.4929 18.7281 74.5443 19.1438C74.5962 19.5559 74.5621 19.9801 74.442 20.4163L70.2336 19.7258C70.2397 19.9846 70.2933 20.227 70.3945 20.4529C70.5 20.6757 70.6487 20.8626 70.8406 21.0137C71.0362 21.1654 71.2647 21.2645 71.5261 21.3112C71.8027 21.3565 72.0651 21.3286 72.3134 21.2273C72.5654 21.1267 72.7841 20.9664 72.9697 20.7465L74.0775 21.2029C73.7798 21.651 73.3854 21.9936 72.8943 22.2307C72.4038 22.4641 71.8857 22.5361 71.3398 22.4465ZM70.3378 18.8516L73.4381 19.3603C73.4447 19.0924 73.3907 18.8406 73.2762 18.6051C73.1658 18.3665 73.0098 18.1671 72.8082 18.007C72.6107 17.8438 72.381 17.7407 72.119 17.6977C71.8606 17.6553 71.6103 17.6778 71.3681 17.7651C71.1294 17.853 70.9197 17.9923 70.7389 18.1832C70.5624 18.3709 70.4287 18.5938 70.3378 18.8516Z" fill="white"/>
<path d="M84.5343 20.4725L85.5989 20.9087L83.5016 26.0271L82.4319 25.5888L82.695 24.8298C82.4372 25.031 82.1475 25.1594 81.8259 25.2149C81.5043 25.2704 81.1694 25.2269 80.8214 25.0843C80.446 24.9305 80.1215 24.7158 79.8479 24.4403C79.5756 24.1613 79.3649 23.8439 79.2159 23.4879C79.0703 23.1333 78.9946 22.7636 78.989 22.3787C78.9847 21.9904 79.0601 21.6069 79.2153 21.2281C79.3649 20.863 79.5737 20.548 79.8416 20.2832C80.1109 20.015 80.4164 19.8093 80.7579 19.6664C81.0994 19.5234 81.4569 19.4486 81.8301 19.4422C82.2082 19.4337 82.5798 19.5043 82.9449 19.6539C83.3168 19.8063 83.6094 20.0258 83.8228 20.3125C84.0409 20.5971 84.1899 20.9093 84.2699 21.2489L84.5343 20.4725ZM81.2173 24.045C81.5176 24.168 81.8104 24.2023 82.0957 24.1479C82.3825 24.09 82.639 23.96 82.8653 23.7578C83.095 23.5571 83.2728 23.3031 83.3986 22.996C83.5259 22.6855 83.5781 22.3781 83.5553 22.0739C83.5325 21.7697 83.4386 21.498 83.2735 21.259C83.1132 21.018 82.8829 20.836 82.5827 20.7129C82.2858 20.5913 81.9838 20.5552 81.6766 20.6047C81.3694 20.6542 81.0924 20.7758 80.8456 20.9696C80.5988 21.1633 80.4125 21.4138 80.2867 21.7209C80.1594 22.0314 80.1174 22.343 80.1607 22.6556C80.2088 22.9662 80.3232 23.2462 80.5039 23.4956C80.6895 23.743 80.9273 23.9261 81.2173 24.045Z" fill="white"/>
<path d="M87.3041 27.9747L90.6538 23.5729L91.5694 24.2697L91.2143 24.7363C91.5054 24.6705 91.8012 24.6685 92.1016 24.7303C92.4051 24.7944 92.6859 24.9247 92.9441 25.1212C93.2581 25.3602 93.4891 25.6564 93.6371 26.01C93.7873 26.3606 93.8452 26.7199 93.811 27.0877C94.1563 26.9566 94.515 26.9145 94.8872 26.9613C95.2645 27.0075 95.6101 27.15 95.9241 27.389C96.2498 27.6369 96.4859 27.9416 96.6324 28.3033C96.7788 28.665 96.8297 29.0397 96.7849 29.4273C96.7401 29.8149 96.5938 30.1716 96.346 30.4973L94.2457 33.2572L93.3301 32.5605L95.2529 30.0339C95.4002 29.8402 95.4884 29.6269 95.5173 29.3941C95.5462 29.1612 95.5194 28.9346 95.4369 28.7142C95.3544 28.4939 95.2162 28.31 95.0226 28.1626C94.8289 28.0152 94.6171 27.9282 94.3872 27.9015C94.1572 27.8748 93.9339 27.9064 93.7172 27.9964C93.5005 28.0863 93.3139 28.234 93.1576 28.4394L91.2349 30.966L90.3193 30.2693L92.2421 27.7427C92.3984 27.5372 92.491 27.3181 92.5199 27.0853C92.5488 26.8524 92.5183 26.6276 92.4284 26.4109C92.3414 26.1964 92.2011 26.0154 92.0074 25.868C91.8166 25.7229 91.6026 25.6388 91.3653 25.6157C91.1309 25.5949 90.9053 25.6295 90.6886 25.7194C90.4719 25.8094 90.2898 25.9512 90.1424 26.1448L88.2197 28.6714L87.3041 27.9747Z" fill="white"/>
<path d="M100.645 41.134L107.349 37.2572L108.683 39.5651C108.892 39.9258 108.991 40.3031 108.98 40.697C108.971 41.0941 108.865 41.4665 108.661 41.8142C108.46 42.1652 108.175 42.4468 107.808 42.6591C107.435 42.8751 107.045 42.9814 106.638 42.9781C106.236 42.976 105.861 42.8799 105.513 42.6896C105.164 42.4993 104.888 42.2285 104.685 41.8774L103.926 40.5654L101.221 42.13L100.645 41.134ZM104.922 39.9894L105.623 41.2008C105.734 41.3924 105.882 41.5387 106.068 41.6397C106.256 41.7439 106.457 41.7962 106.67 41.7964C106.885 41.7999 107.093 41.7435 107.294 41.6272C107.495 41.5109 107.648 41.3587 107.752 41.1706C107.862 40.9839 107.916 40.7839 107.917 40.5708C107.922 40.359 107.869 40.1573 107.758 39.9658L107.058 38.7544L104.922 39.9894Z" fill="white"/>
<path d="M104.768 49.2556L109.994 47.4453L110.371 48.5325L109.817 48.7243C110.096 48.8307 110.344 48.9946 110.561 49.216C110.778 49.4373 110.94 49.7013 111.046 50.008C111.114 50.2031 111.154 50.4055 111.169 50.6153L109.921 50.5616C109.926 50.4076 109.905 50.2627 109.858 50.1268C109.778 49.8968 109.648 49.7059 109.466 49.5541C109.288 49.4011 109.084 49.3003 108.852 49.2516C108.621 49.203 108.388 49.2192 108.155 49.3L105.144 50.3428L104.768 49.2556Z" fill="white"/>
<path d="M107.045 58.6527C106.976 58.1484 107.043 57.6704 107.246 57.2185C107.449 56.7703 107.751 56.3923 108.152 56.0846C108.557 55.78 109.025 55.5916 109.554 55.5194C109.956 55.4647 110.341 55.4849 110.707 55.5801C111.077 55.6748 111.411 55.8284 111.708 56.041C112.009 56.2568 112.257 56.5207 112.452 56.8328C112.647 57.1449 112.77 57.4891 112.822 57.8654C112.89 58.3697 112.823 58.8459 112.62 59.2941C112.417 59.746 112.114 60.1242 111.708 60.4288C111.304 60.737 110.835 60.9274 110.301 61.0001C109.903 61.0544 109.521 61.034 109.154 60.9388C108.788 60.8436 108.454 60.6881 108.153 60.4723C107.856 60.2597 107.61 59.9974 107.415 59.6853C107.22 59.3769 107.097 59.0327 107.045 58.6527ZM108.185 58.4973C108.226 58.8006 108.344 59.0618 108.538 59.2811C108.731 59.5003 108.969 59.6614 109.251 59.7644C109.537 59.8706 109.835 59.9025 110.146 59.8602C110.464 59.8168 110.746 59.7039 110.993 59.5214C111.24 59.3426 111.426 59.1219 111.55 58.8593C111.678 58.5963 111.722 58.3167 111.682 58.0208C111.641 57.7212 111.523 57.4599 111.329 57.237C111.136 57.0178 110.896 56.8551 110.61 56.7489C110.324 56.6464 110.024 56.6166 109.71 56.6594C109.385 56.7037 109.1 56.8169 108.857 56.9989C108.614 57.1809 108.43 57.4032 108.306 57.6657C108.186 57.9315 108.146 58.2087 108.185 58.4973Z" fill="white"/>
<path d="M104.83 66.7923L104.934 65.6465L113.197 66.399L113.093 67.5448L112.283 67.4711C112.549 67.6804 112.757 67.9364 112.908 68.2389C113.058 68.5414 113.115 68.8873 113.08 69.2765C113.043 69.6768 112.934 70.0445 112.752 70.3797C112.569 70.7185 112.331 71.008 112.039 71.248C111.751 71.4883 111.425 71.6679 111.063 71.7867C110.7 71.9054 110.319 71.9466 109.918 71.9102C109.518 71.8737 109.148 71.7641 108.81 71.5815C108.471 71.3988 108.179 71.163 107.935 70.8742C107.695 70.5857 107.516 70.2584 107.397 69.8921C107.278 69.5295 107.237 69.1481 107.274 68.7478C107.309 68.3585 107.428 68.0287 107.63 67.7583C107.836 67.4882 108.087 67.2741 108.383 67.1159L104.83 66.7923ZM111.973 69.1647C112.003 68.8452 111.947 68.5569 111.808 68.2998C111.668 68.0427 111.469 67.8338 111.21 67.6732C110.954 67.5129 110.661 67.4177 110.33 67.3876C110 67.3575 109.692 67.398 109.408 67.5092C109.124 67.6203 108.89 67.7897 108.707 68.0174C108.523 68.245 108.417 68.5186 108.387 68.8381C108.359 69.1539 108.411 69.4512 108.545 69.73C108.683 70.0091 108.88 70.24 109.137 70.4227C109.395 70.6054 109.69 70.7119 110.025 70.7423C110.352 70.7721 110.658 70.7204 110.944 70.5873C111.23 70.4578 111.466 70.2682 111.651 70.0185C111.837 69.7688 111.944 69.4842 111.973 69.1647Z" fill="white"/>
<path d="M105.429 77.7802C105.588 77.2967 105.857 76.896 106.237 76.5782C106.615 76.2639 107.052 76.0561 107.548 75.9546C108.045 75.8578 108.548 75.8928 109.056 76.0595C109.441 76.186 109.778 76.3722 110.066 76.6181C110.357 76.8651 110.59 77.1491 110.764 77.4701C110.941 77.7958 111.049 78.1417 111.088 78.5077C111.127 78.8736 111.087 79.2371 110.968 79.598C110.836 80.0009 110.631 80.3429 110.352 80.6241C110.077 80.9064 109.753 81.1184 109.381 81.2601C109.012 81.4029 108.618 81.4677 108.199 81.4545C107.784 81.4425 107.37 81.3435 106.958 81.1577L108.288 77.1056C108.031 77.0718 107.783 77.0876 107.544 77.1528C107.308 77.2227 107.1 77.3409 106.922 77.5073C106.742 77.6773 106.608 77.8878 106.522 78.1389C106.435 78.4052 106.422 78.6688 106.484 78.9297C106.545 79.1941 106.669 79.4349 106.858 79.6521L106.237 80.6766C105.84 80.3134 105.562 79.871 105.403 79.3493C105.248 78.8288 105.257 78.3057 105.429 77.7802ZM109.135 77.3431L108.156 80.3283C108.419 80.376 108.676 80.3614 108.927 80.2844C109.18 80.2121 109.401 80.0886 109.59 79.914C109.781 79.744 109.919 79.5329 110.001 79.2806C110.083 79.0319 110.099 78.7811 110.05 78.5282C110 78.2789 109.895 78.0503 109.734 77.8423C109.576 77.639 109.376 77.4725 109.135 77.3431Z" fill="white"/>
<path d="M102.782 84.56L107.596 87.2847L107.029 88.2859L106.519 87.9971C106.624 88.2766 106.665 88.571 106.642 88.8803C106.62 89.1896 106.528 89.4854 106.369 89.7679C106.267 89.9476 106.142 90.112 105.994 90.2613L105.209 89.2896C105.328 89.1917 105.423 89.0801 105.494 88.955C105.614 88.7432 105.671 88.519 105.665 88.2826C105.662 88.048 105.602 87.8278 105.486 87.6219C105.369 87.4161 105.203 87.2524 104.988 87.1307L102.216 85.5613L102.782 84.56Z" fill="white"/>
<path d="M100.429 95.7404L101.164 94.8407L97.7743 92.0656L98.502 91.1744L101.892 93.9495L102.448 93.2683L103.339 93.996L102.783 94.6772L104.132 95.7715L103.404 96.6626L102.055 95.5684L101.321 96.4681L100.429 95.7404Z" fill="white"/>
<path d="M94.6683 102.807L93.7252 103.593L90.739 95.28L91.6778 94.4971L92.6803 97.2623L97.748 100.238L96.7838 101.043L93.2482 98.8414L94.6683 102.807Z" fill="white"/>
</svg>
